<?xml version="1.0" encoding="UTF-8"?>
<svg width="323px" height="237px" viewBox="0 0 323 237" version="1.1" xmlns="http://www.w3.org/2000/svg" xmlns:xlink="http://www.w3.org/1999/xlink">
    <title>394BBAAA-6CAF-45F7-B821-AF93B78BFB08</title>
    <defs>
        <linearGradient x1="50.0011621%" y1="100.00118%" x2="50.0011621%" y2="-0.0158321861%" id="linearGradient-1">
            <stop stop-color="#808080" stop-opacity="0.25" offset="0%"></stop>
            <stop stop-color="#808080" stop-opacity="0.12" offset="54%"></stop>
            <stop stop-color="#808080" stop-opacity="0.1" offset="100%"></stop>
        </linearGradient>
    </defs>
    <g id="Design" stroke="none" stroke-width="1" fill="none" fill-rule="evenodd">
        <g id="Dark/Start/" transform="translate(-79.000000, -1200.000000)">
            <g id="2" transform="translate(0.000000, 901.000000)">
                <g id="Body" transform="translate(12.000000, 95.000000)">
                    <g id="Big-card" transform="translate(0.000000, 168.000000)">
                        <g id="Group-2">
                            <g id="undraw_server_status_5pbv">
                                <g transform="translate(67.000000, 36.000000)">
                                    <path d="M105.258706,149.822028 C115.946283,145.590501 132.723117,144.727553 147.993709,145.066568 C195.960757,146.123679 239.259069,156.40817 276.709982,168.042559 C290.269214,172.255594 303.617206,176.795317 312.41892,182.59556 C330.334619,194.402538 325.019914,210.758484 300.108766,220.485141 C291.631567,223.795163 281.357287,226.34086 270.807475,228.578361 C252.046812,232.578741 231.816645,235.787058 210.527211,236.711645 C195.348463,237.361938 179.979904,236.831842 164.889939,235.922664 C122.724369,233.373886 81.3394726,227.77397 46.6500023,218.149018 C31.4345167,213.935982 17.0946103,208.696655 10.830851,201.876284 C4.56709177,195.055913 8.5714892,186.420269 24.1084287,182.382905 C30.5375072,180.715566 38.2156637,179.960487 45.7376854,179.254719 C56.8079462,178.213017 68.055772,177.183643 78.0453353,175.066339 C88.3655369,172.878149 100.583847,168.646622 98.5418496,163.804868 C96.3406556,158.608688 94.5833742,154.047391 105.258706,149.822028 Z" id="Path" fill="#3366FF" fill-rule="nonzero" opacity="0.1"></path>
                                    <path d="M154.168666,9.37707609 L153,77.2916503 C153,77.2916503 195.305106,77.2916503 231.297573,89 L232,20.3724764 C232,20.3724764 174.269113,6.56830139 154.168666,9.37707609 Z" id="Path" fill="#000000" fill-rule="nonzero" opacity="0.1"></path>
                                    <g id="Group-7" transform="translate(162.000000, 8.000000)" fill-rule="nonzero">
                                        <path d="M1.16866628,0.37707609 L0,68.2916503 C0,68.2916503 42.3051058,68.2916503 78.2975733,80 L79,11.3724764 C79,11.3724764 21.2691128,-2.43169861 1.16866628,0.37707609 Z" id="Path" fill="#F5F5FB"></path>
                                        <path d="M37.5,32 C33.9101491,32 31,34.9101491 31,38.5 C31,42.0898509 33.9101491,45 37.5,45 C41.0898509,45 44,42.0898509 44,38.5 C44,34.9101491 41.0898509,32 37.5,32 Z M37.5,33.2597619 C40.4060698,33.2597619 42.7619048,35.6155969 42.7619048,38.5216667 C42.7619048,41.4277364 40.4060698,43.7835714 37.5,43.7835714 C34.5939302,43.7835714 32.2380952,41.4277364 32.2380952,38.5216667 C32.2380952,35.6155969 34.5939302,33.2597619 37.5,33.2597619 L37.5,33.2597619 Z M41.1802381,36.68 L40.5890476,36.082619 C40.5307076,36.0220911 40.4502571,35.9878967 40.3661905,35.9878967 C40.2821239,35.9878967 40.2016734,36.0220911 40.1433333,36.082619 L36.4290476,39.7628571 L34.8597619,38.1811905 C34.8014219,38.1206625 34.7209714,38.0864682 34.6369048,38.0864682 C34.5528382,38.0864682 34.4723877,38.1206625 34.4140476,38.1811905 L33.8228571,38.7785714 C33.7623292,38.8369115 33.7281348,38.917362 33.7281348,39.0014286 C33.7281348,39.0854952 33.7623292,39.1659457 33.8228571,39.2242857 L36.2061905,41.6261905 C36.2645305,41.6867184 36.344981,41.7209128 36.4290476,41.7209128 C36.5131142,41.7209128 36.5935647,41.6867184 36.6519048,41.6261905 L41.1802381,37.1319048 C41.2407661,37.0735647 41.2749604,36.9931142 41.2749604,36.9090476 C41.2749604,36.824981 41.2407661,36.7445305 41.1802381,36.6861905 L41.1802381,36.68 Z" id="Shape" fill="#3ACC6C" opacity="0.7"></path>
                                    </g>
                                    <path d="M135.831334,9.37663605 L137,77.2915856 C137,77.2915856 94.6948942,77.2915856 58.7024267,89 L58,20.3905356 C58,20.3905356 115.730887,6.56784583 135.831334,9.37663605 Z" id="Path" fill="#000000" fill-rule="nonzero" opacity="0.1"></path>
                                    <g id="Group-6" transform="translate(71.000000, 8.000000)" fill-rule="nonzero">
                                        <path d="M77.8313337,0.376636054 L79,68.2915856 C79,68.2915856 36.6948942,68.2915856 0.702426713,80 L0,11.3905356 C0,11.3905356 57.7308872,-2.43215417 77.8313337,0.376636054 Z" id="Path" fill="#F5F5FB"></path>
                                        <path d="M37.5,30 C33.9101491,30 31,32.9101491 31,36.5 C31,40.0898509 33.9101491,43 37.5,43 C41.0898509,43 44,40.0898509 44,36.5 C44,32.9101491 41.0898509,30 37.5,30 L37.5,30 Z M37.5,31.2597619 C40.4060698,31.2597619 42.7619048,33.6155969 42.7619048,36.5216667 C42.7619048,39.4277364 40.4060698,41.7835714 37.5,41.7835714 C34.5939302,41.7835714 32.2380952,39.4277364 32.2380952,36.5216667 C32.2380952,33.6155969 34.5939302,31.2597619 37.5,31.2597619 L37.5,31.2597619 Z M41.1802381,34.68 L40.5890476,34.082619 C40.5307076,34.0220911 40.4502571,33.9878967 40.3661905,33.9878967 C40.2821239,33.9878967 40.2016734,34.0220911 40.1433333,34.082619 L36.4290476,37.7628571 L34.8628571,36.1719048 C34.8045171,36.1113768 34.7240666,36.0771824 34.64,36.0771824 C34.5559334,36.0771824 34.4754829,36.1113768 34.4171429,36.1719048 L33.8228571,36.7630952 C33.7623292,36.8214353 33.7281348,36.9018858 33.7281348,36.9859524 C33.7281348,37.070019 33.7623292,37.1504695 33.8228571,37.2088095 L36.2061905,39.6107143 C36.2645305,39.6712422 36.344981,39.7054366 36.4290476,39.7054366 C36.5131142,39.7054366 36.5935647,39.6712422 36.6519048,39.6107143 L41.1802381,35.1164286 C41.2407661,35.0580885 41.2749604,34.977638 41.2749604,34.8935714 C41.2749604,34.8095048 41.2407661,34.7290543 41.1802381,34.6707143 L41.1802381,34.68 Z" id="Shape" fill="#3ACC6C" opacity="0.7"></path>
                                    </g>
                                    <path d="M242,30 L242,96.9445657 C242,96.9445657 255.698167,95.312966 284.446053,131 L287,64.0554343 C287,64.0554343 257.077116,31.6346608 242,30 Z" id="Path" fill="#000000" fill-rule="nonzero" opacity="0.1"></path>
                                    <g id="Group-8" transform="translate(253.000000, 24.000000)" fill-rule="nonzero">
                                        <path d="M0,0 L0,66.9445657 C0,66.9445657 13.6981668,65.312966 42.4460529,101 L45,34.0554343 C45,34.0554343 15.0771156,1.63466085 0,0 Z" id="Path" fill="#F5F5FB"></path>
                                        <path d="M23.0030691,44.019805 C19.4252058,43.7421471 16.2993001,46.4165395 16.0200344,49.9941935 C15.7407687,53.5718474 18.4138251,56.6988757 21.9914385,56.9797359 C25.5690518,57.2605962 28.6973502,54.5890027 28.9798182,51.0116002 C29.115626,49.2916197 28.5619898,47.5882173 27.4409011,46.2767313 C26.3198124,44.9652454 24.7232711,44.1533002 23.0030691,44.019805 L23.0030691,44.019805 Z M22.9040241,45.2733141 C25.0284343,45.4329479 26.8469446,46.8578084 27.5100963,48.882318 C28.1732481,50.9068275 27.5501601,53.1314241 25.9318879,54.5169592 C24.3136156,55.9024942 22.0195452,56.1755153 20.1212777,55.2084893 C18.2230101,54.2414633 17.095192,52.2252449 17.2646472,50.1016454 C17.3713301,48.7132233 18.0256489,47.424177 19.0834414,46.5185144 C20.1412339,45.6128518 21.5157044,45.1648858 22.9040241,45.2733141 L22.9040241,45.2733141 Z M26.3086973,48.9688446 L25.7639495,48.3281622 C25.7108875,48.2634583 25.633887,48.2229961 25.5504999,48.2159988 C25.4671129,48.2090014 25.3844457,48.2360653 25.321342,48.2910212 L21.3378744,51.6739482 L19.895531,49.974747 C19.842412,49.9090945 19.7647724,49.8679977 19.6806125,49.8609845 C19.5964526,49.8539713 19.5130815,49.8816509 19.4498283,49.9376059 L18.8091307,50.4823408 C18.7448739,50.5358473 18.7050005,50.6130755 18.6985873,50.6964456 C18.692174,50.7798157 18.7197666,50.8622335 18.775084,50.9249378 L20.9633603,53.5031429 C21.0164223,53.5678468 21.0934229,53.608309 21.1768099,53.6153063 C21.260197,53.6223037 21.3428642,53.5952398 21.4059678,53.5402839 L26.2715554,49.4114416 C26.3362608,49.3583809 26.3767239,49.2813821 26.3837214,49.1979971 C26.390719,49.114612 26.3636545,49.0319467 26.3086973,48.9688446 L26.3086973,48.9688446 Z" id="Shape" fill="#3ACC6C" opacity="0.7"></path>
                                    </g>
                                    <path d="M48,31 L48,97.9455978 C48,97.9455978 34.3009065,96.3140476 5.55107563,132 L3,65.0574633 C3,65.0574633 32.9218644,32.6376724 48,31 Z" id="Path" fill="#000000" fill-rule="nonzero" opacity="0.1"></path>
                                    <g id="Group-5" transform="translate(14.000000, 26.000000)" fill-rule="nonzero">
                                        <path d="M45,0 L45,66.9455978 C45,66.9455978 31.3009065,65.3140476 2.55107563,101 L0,34.0574633 C0,34.0574633 29.9218644,1.63767237 45,0 Z" id="Path" fill="#F5F5FB"></path>
                                        <path d="M21.0295825,44.1685819 C17.5358723,44.9802356 15.3602724,48.4692397 16.1686345,51.9640718 C16.9769965,55.4589039 20.4636257,57.637938 23.9588181,56.8326928 C27.4540106,56.0274476 29.636004,52.5424393 28.8340511,49.0461306 C28.4479975,47.3630357 27.4080852,45.9027813 25.9438457,44.9876774 C24.4796061,44.0725735 22.7114265,43.7778583 21.0295825,44.1685819 L21.0295825,44.1685819 Z M21.3142816,45.4065384 C23.388592,44.9224236 25.5500906,45.7370528 26.7890573,47.469881 C28.028024,49.2027091 28.0999197,51.5117221 26.9711592,53.3182902 C25.8423987,55.1248583 23.7357693,56.0724131 21.6353594,55.7183148 C19.5349495,55.3642165 17.8553242,53.7783548 17.3811017,51.7015473 C16.7364183,48.8782242 18.4943531,46.0646699 21.3142816,45.4065384 L21.3142816,45.4065384 Z M25.668321,47.9134004 L24.9565733,47.4553565 C24.8863521,47.4097163 24.8006331,47.394489 24.7189915,47.413152 C24.6373499,47.4318149 24.5667576,47.4827744 24.5233355,47.554393 L21.7382357,51.9738978 L19.8536515,50.7823646 C19.7834303,50.7367245 19.6977113,50.7214972 19.6160697,50.7401601 C19.5344281,50.7588231 19.4638358,50.8097826 19.4204137,50.8814011 L18.9717032,51.5932261 C18.926068,51.6634549 18.9108424,51.7491832 18.9295033,51.8308337 C18.9481642,51.9124842 18.9991182,51.9830841 19.070729,52.0265109 L21.9300981,53.8308325 C22.0005553,53.87749 22.0870259,53.8933022 22.1694327,53.874598 C22.2518396,53.8558937 22.323014,53.8042999 22.3664304,53.731796 L25.7704413,48.3374005 C25.8163497,48.2675525 25.8320562,48.1821028 25.8139873,48.1004926 C25.7959184,48.0188824 25.7456108,47.9480518 25.6745101,47.9041157 L25.668321,47.9134004 Z" id="Shape" fill="#3ACC6C" opacity="0.7"></path>
                                    </g>
                                    <path d="M204,144.511994 C204,146.796858 189.556449,160 156.679128,160 C123.801807,160 106,147.256898 106,144.972034 C106,142.687169 124.412399,148.345659 157.28972,148.345659 C190.16704,148.345659 204,142.224063 204,144.511994 Z" id="Path" fill="#F7F7FD" fill-rule="nonzero"></path>
                                    <ellipse id="Oval" fill="#3366FF" fill-rule="nonzero" opacity="0.1" cx="96.5" cy="112.5" rx="3.5" ry="1"></ellipse>
                                    <ellipse id="Oval" fill="#3366FF" fill-rule="nonzero" opacity="0.1" cx="83.5" cy="113.5" rx="3.5" ry="1"></ellipse>
                                    <ellipse id="Oval" fill="#3366FF" fill-rule="nonzero" opacity="0.1" cx="67.5" cy="111.5" rx="3.5" ry="1"></ellipse>
                                    <ellipse id="Oval" fill="#3366FF" fill-rule="nonzero" opacity="0.1" cx="88.5" cy="116.5" rx="2.5" ry="1"></ellipse>
                                    <ellipse id="Oval" fill="#3366FF" fill-rule="nonzero" opacity="0.1" cx="74.5" cy="116.5" rx="2.5" ry="1"></ellipse>
                                    <path d="M83.0141429,112 C83.0141429,112 87.961951,96.2582406 82.2377745,89.9549615 C77.955425,85.2387101 73.0877184,85.7916293 70.9311395,86.3893798 C69.7911419,86.6836845 68.8417096,87.4485007 68.3340024,88.4815065 C67.5730381,90.0745116 67.717837,92.66576 73.0846375,95.6784226 C82.0775715,100.729414 82.6352011,107.660331 82.6352011,107.660331 L83.0141429,112 Z" id="Path" fill="#222B45" fill-rule="nonzero"></path>
                                    <path d="M72,89 C72,89 86.8417289,93.5435255 83.5136216,113" id="Path" stroke="#565987"></path>
                                    <path d="M81,91 C81,91 78.3146324,92.1972727 79.1671954,94" id="Path" stroke="#565987"></path>
                                    <path d="M74,92 C74,92 74.9060023,90.372176 76,91.2702858" id="Path" stroke="#565987"></path>
                                    <path d="M79,98.5984778 C79,98.5984778 80.5891033,97.014696 81,99" id="Path" stroke="#565987"></path>
                                    <path d="M85,100.012477 C85,100.012477 83.0336449,99.8140277 83,101" id="Path" stroke="#565987"></path>
                                    <path d="M84,113 C84,113 78.0389008,100.735233 76.3981732,101.004365 C75.6221534,101.132524 75.2642341,101.904679 75.0995278,102.683242 C74.8957994,103.687717 75.0065102,104.731443 75.4162706,105.669334 C76.2746436,107.630159 78.5456893,111.362775 84,113 Z" id="Path" fill="#222B45" fill-rule="nonzero"></path>
                                    <path d="M76,104 C76,104 81.865507,112.620736 83,113" id="Path" stroke="#565987"></path>
                                    <line x1="76" y1="105.5" x2="78" y2="105.5" id="Path" stroke="#565987"></line>
                                    <line x1="78" y1="108.345" x2="80" y2="108.655" id="Path" stroke="#565987"></line>
                                    <line x1="78.895" y1="106" x2="78.105" y2="107" id="Path" stroke="#565987"></line>
                                    <line x1="80.57" y1="109" x2="80.43" y2="110" id="Path" stroke="#565987"></line>
                                    <path d="M83,113 C83,113 88.9585713,100.735233 90.6026427,101.004365 C91.3819136,101.132524 91.7398714,101.904679 91.9014276,102.683242 C92.1036968,103.687788 91.9930227,104.731056 91.5846508,105.669334 C90.7261857,107.630159 88.4548962,111.362775 83,113 Z" id="Path" fill="#222B45" fill-rule="nonzero"></path>
                                    <path d="M90,104 C90,104 84.1320034,112.620736 83,113" id="Path" stroke="#565987"></path>
                                    <line x1="91" y1="105.5" x2="89" y2="105.5" id="Path" stroke="#565987"></line>
                                    <line x1="89" y1="108.345" x2="87" y2="108.655" id="Path" stroke="#565987"></line>
                                    <line x1="88.105" y1="106" x2="88.895" y2="107" id="Path" stroke="#565987"></line>
                                    <line x1="85.43" y1="109" x2="85.57" y2="110" id="Path" stroke="#565987"></line>
                                    <path d="M73.2915955,115.503469 C73.1577639,115.381863 73.060382,115.217785 73.0124085,115.033071 C72.9670715,114.842696 73.0490447,114.643219 73.2081003,114.556865 C73.3855276,114.478466 73.5786102,114.617843 73.7299452,114.75722 C73.8553623,114.921657 74.0372247,115.019688 74.2309162,115.027263 C74.0321492,114.826547 73.9421026,114.524819 73.9934768,114.231652 C74.0036224,114.172027 74.0269355,114.116147 74.0613167,114.069045 C74.1604672,113.949994 74.3405037,114.00226 74.460528,114.095178 C74.8388655,114.385547 74.9432345,114.966286 74.9458437,115.480239 C74.9662345,115.287325 74.9662345,115.092415 74.9458437,114.899501 C74.9300872,114.705725 75.0025755,114.516044 75.1389263,114.394259 C75.2286156,114.340469 75.329298,114.313458 75.4311594,114.315859 C75.6023544,114.288667 75.7758813,114.34354 75.9086474,114.466851 C76.0369387,114.663854 76.0294302,114.932435 75.8903828,115.120181 C75.7495735,115.296444 75.5828059,115.444719 75.3972395,115.558639 C75.2553263,115.651432 75.134738,115.779665 75.0449942,115.933215 C75.0336552,115.95408 75.0248797,115.976541 75.018902,116 L73.94912,116 C73.7117405,115.866512 73.4907565,115.699635 73.2915955,115.503469 Z" id="Path" fill="#3366FF" fill-rule="nonzero"></path>
                                    <path d="M95.2916949,111.500836 C95.1580773,111.380316 95.0606957,111.217312 95.0125569,111.033596 C94.9669112,110.84251 95.0487843,110.642135 95.2082143,110.554747 C95.4023447,110.512733 95.6017605,110.590377 95.7299675,110.757895 C95.8548086,110.922647 96.0372059,111.019874 96.2308506,111.024889 C96.031671,110.824607 95.9415546,110.522756 95.9934529,110.22971 C96.002391,110.170562 96.0258664,110.115318 96.0612808,110.070093 C96.1604139,109.951107 96.3404188,110.000443 96.460422,110.09331 C96.8386931,110.383522 96.9430437,110.963945 96.9456525,111.480521 C96.9658497,111.287699 96.9658497,111.09292 96.9456525,110.900098 C96.9298988,110.706428 97.0023744,110.51685 97.1387012,110.39513 C97.2281314,110.340937 97.3291374,110.314853 97.430883,110.319675 C97.6021379,110.290975 97.7761876,110.345993 97.9082872,110.470585 C98.03707,110.666246 98.0295393,110.934325 97.8900258,111.120659 C97.7492412,111.296826 97.5825029,111.44502 97.396969,111.558878 C97.2556456,111.65245 97.1352327,111.78045 97.0447856,111.933251 C97.0334486,111.954105 97.0246747,111.976554 97.0186979,112 L95.9491039,112 C95.7110741,111.866713 95.4900061,111.698859 95.2916949,111.500836 L95.2916949,111.500836 Z" id="Path" fill="#3366FF" fill-rule="nonzero"></path>
                                    <path d="M88.2907943,115.503469 C88.1571208,115.381863 88.059854,115.217785 88.0119372,115.033071 C87.9677247,114.842799 88.0493008,114.644054 88.2073978,114.556865 C88.3872215,114.478466 88.5774698,114.617843 88.728626,114.75722 C88.8540967,114.921366 89.035622,115.019331 89.2290052,115.027263 C89.0309773,114.826259 88.941968,114.524336 88.9944525,114.231652 C89.0024317,114.171836 89.024965,114.115599 89.059606,114.069045 C89.1586394,113.949994 89.3384631,114.00226 89.4583456,114.095178 C89.8362361,114.385547 89.9430879,114.966286 89.9456941,115.480239 C89.9646976,115.287239 89.9646976,115.092501 89.9456941,114.899501 C89.9299562,114.705725 90.0023589,114.516044 90.1385485,114.394259 C90.3884346,114.266071 90.6803991,114.293638 90.9073602,114.466851 C91.0373833,114.663204 91.0298439,114.933213 90.8891172,115.120181 C90.7490129,115.297076 90.5823375,115.445443 90.3965565,115.558639 C90.2558611,115.652972 90.1356985,115.780904 90.0447274,115.933215 C90.0344853,115.954683 90.0257714,115.977013 90.018666,116 L88.9527542,116 C88.7135465,115.867484 88.4909911,115.700547 88.2907943,115.503469 L88.2907943,115.503469 Z" id="Path" fill="#3366FF" fill-rule="nonzero"></path>
                                    <path d="M66.8958108,106 C66.8958108,106 66.4963239,106.641026 67.0811936,107.602564 C67.6660633,108.564103 68.151714,109.394231 67.9558871,110 C67.9558871,110 67.0707495,108.195513 66.3527176,108.169872 C65.6346856,108.144231 66.1125032,107.083333 66.8958108,106 Z" id="Path" fill="#3366FF" fill-rule="nonzero"></path>
                                    <path d="M66.9040912,106 C66.8686605,106.061828 66.8410675,106.129726 66.8222281,106.201439 C66.111868,107.208633 65.7342416,108.151878 66.4155535,108.174261 C67.0519729,108.196643 67.8151479,109.57474 68,109.920064 C67.9945474,109.947287 67.9874872,109.974001 67.978874,110 C67.978874,110 67.0836618,108.19984 66.3574572,108.174261 C65.6312526,108.148681 66.111868,107.080735 66.9040912,106 Z" id="Path" fill="#000000" fill-rule="nonzero" opacity="0.1"></path>
                                    <path d="M66.325,107.260701 C66.325,107.670781 66.405,108 66.505,108 C66.605,108 66.675,107.670781 66.675,107.260701 C66.675,106.850622 66.585,107.046998 66.485,107.046998 C66.385,107.046998 66.325,106.856397 66.325,107.260701 Z" id="Path" fill="#FFD037" fill-rule="nonzero"></path>
                                    <path d="M66.2267455,107.504983 C66.6217661,107.844983 66.9658163,108.044983 66.9976728,107.954983 C67.0295293,107.864983 66.7300782,107.524983 66.3605428,107.194983 C65.9910074,106.864983 66.1184334,107.094983 66.0929482,107.194983 C66.067463,107.294983 65.8317249,107.214983 66.2267455,107.504983 Z" id="Path" fill="#FFD037" fill-rule="nonzero"></path>
                                    <path d="M70.100474,106 C70.100474,106 70.5020503,106.641026 69.9153316,107.602564 C69.328613,108.564103 68.8488075,109.394231 69.0443804,110 C69.0443804,110 69.9257622,108.195513 70.6454704,108.169872 C71.3651786,108.144231 70.8905884,107.083333 70.100474,106 Z" id="Path" fill="#3366FF" fill-rule="nonzero"></path>
                                    <path d="M70.0942503,106 C70.1296274,106.061828 70.1571786,106.129726 70.1759895,106.201439 C70.8852747,107.208633 71.2623296,108.151878 70.5820487,108.174261 C69.9465925,108.196643 69.1872091,109.57474 69,109.920064 C69.0054444,109.947287 69.0124938,109.974001 69.021094,110 C69.021094,110 69.9123147,108.19984 70.6400571,108.174261 C71.3677995,108.148681 70.8931849,107.080735 70.0942503,106 Z" id="Path" fill="#000000" fill-rule="nonzero" opacity="0.1"></path>
                                    <path d="M70.675,107.260701 C70.675,107.670781 70.605,108 70.505,108 C70.405,108 70.325,107.670781 70.325,107.260701 C70.325,106.850622 70.425,107.046998 70.525,107.046998 C70.625,107.046998 70.675,106.856397 70.675,107.260701 Z" id="Path" fill="#FFD037" fill-rule="nonzero"></path>
                                    <path d="M70.7716185,107.504983 C70.3737689,107.844983 70.0272548,108.044983 70.0015871,107.954983 C69.9759194,107.864983 70.2646812,107.524983 70.6432799,107.194983 C71.0218786,106.864983 70.8871232,107.094983 70.9192078,107.194983 C70.9512924,107.294983 71.1502172,107.214983 70.7716185,107.504983 Z" id="Path" fill="#FFD037" fill-rule="nonzero"></path>
                                    <path d="M70,110.569932 C70,110.569932 68.6540484,110.537832 68.250263,110.310658 C67.8464775,110.083485 66.1843838,109.816803 66.08422,110.174848 C65.9840561,110.532893 64.0652926,111.989767 65.5802707,111.999644 C67.0952487,112.009521 69.1047857,111.811979 69.5085712,111.619376 C69.9123566,111.426772 70,110.569932 70,110.569932 Z" id="Path" fill="#A8A8A8" fill-rule="nonzero"></path>
                                    <path d="M65.5545229,111.823375 C67.0697419,111.823375 69.0795984,111.564373 69.4834481,111.291557 C69.7965099,111.084356 69.9123427,110.341883 69.9530407,110 L70,110 C70,110 69.9123427,111.194863 69.508493,111.467679 C69.1046433,111.740494 67.0979174,112.01331 65.5795678,111.999497 C65.144412,111.999497 64.9910117,111.823375 65.0004036,111.567826 C65.0598853,111.726681 65.2289387,111.819922 65.5545229,111.823375 Z" id="Path" fill="#000000" fill-rule="nonzero" opacity="0.2"></path>
                                    <ellipse id="Oval" fill="#3366FF" fill-rule="nonzero" opacity="0.1" cx="60" cy="152.5" rx="11" ry="1.5"></ellipse>
                                    <ellipse id="Oval" fill="#3366FF" fill-rule="nonzero" opacity="0.1" cx="90" cy="164.5" rx="11" ry="1.5"></ellipse>
                                    <ellipse id="Oval" fill="#3366FF" fill-rule="nonzero" opacity="0.1" cx="46" cy="180.5" rx="11" ry="1.5"></ellipse>
                                    <ellipse id="Oval" fill="#3366FF" fill-rule="nonzero" opacity="0.1" cx="271" cy="212.5" rx="11" ry="1.5"></ellipse>
                                    <ellipse id="Oval" fill="#3366FF" fill-rule="nonzero" opacity="0.1" cx="150" cy="176" rx="7" ry="1"></ellipse>
                                    <ellipse id="Oval" fill="#3366FF" fill-rule="nonzero" opacity="0.1" cx="251" cy="136" rx="7" ry="1"></ellipse>
                                    <ellipse id="Oval" fill="#3366FF" fill-rule="nonzero" opacity="0.1" cx="196" cy="196" rx="7" ry="1"></ellipse>
                                    <ellipse id="Oval" fill="#3366FF" fill-rule="nonzero" opacity="0.1" cx="136" cy="191" rx="7" ry="1"></ellipse>
                                    <ellipse id="Oval" fill="#3366FF" fill-rule="nonzero" opacity="0.1" cx="79" cy="188" rx="7" ry="1"></ellipse>
                                    <ellipse id="Oval" fill="#3366FF" fill-rule="nonzero" opacity="0.1" cx="64" cy="202" rx="7" ry="1"></ellipse>
                                    <g id="Group" opacity="0.1" transform="translate(108.000000, 52.000000)" fill="#000000" fill-rule="nonzero">
                                        <ellipse id="Oval" cx="47.4387097" cy="21.0463768" rx="46.6174194" ry="20.8589565"></ellipse>
                                        <path d="M94.8651613,28.5032464 C92.8027419,39.3797681 72.4237097,47.9181449 47.5827419,47.9181449 C22.5241935,47.9181449 2.00419355,39.2292174 0.24516129,28.2205797 L0.070483871,28.2205797 L0.070483871,45.9456232 C8.265,54.530087 26.4069355,60.4998841 47.4662903,60.4998841 C68.5256452,60.4998841 86.6675806,54.530087 94.8651613,45.9456232 L94.8651613,28.5032464 Z" id="Path"></path>
                                        <path d="M94.8651613,50.071942 C92.8027419,60.9453913 72.4237097,69.4868406 47.5827419,69.4868406 C22.5241935,69.4868406 2.00419355,60.797913 0.24516129,49.7862029 L0.070483871,49.7862029 L0.070483871,67.5143188 C8.265,76.0987826 26.4069355,82.0655072 47.4662903,82.0655072 C68.5256452,82.0655072 86.6675806,76.0987826 94.8651613,67.5143188 L94.8651613,50.071942 Z" id="Path"></path>
                                        <path d="M94.8651665,73.7944348 C92.8027419,84.6709565 72.4237097,93.2093333 47.5827419,93.2093333 C22.5241935,93.2093333 2.00419355,84.5234783 0.24516129,73.5117681 L0.0704786219,73.5117681 L0.0704786219,92.6286377 C0.0689327695,93.4521647 0.411206121,94.238761 1.01435484,94.7977971 C9.595,102.697101 27.1822581,105.791072 47.4662903,105.791072 C67.7503226,105.791072 85.3283871,102.697101 93.9212903,94.7977971 C94.524439,94.238761 94.8667124,93.4521647 94.8651665,92.6286377 L94.8651665,73.7944348 Z" id="Path"></path>
                                    </g>
                                    <ellipse id="Oval" fill="#3366FF" fill-rule="nonzero" cx="155.5" cy="72.5" rx="46.5" ry="20.5"></ellipse>
                                    <path d="M203,80.2802208 C200.95487,91.0626309 180.746678,99.5271274 156.113956,99.5271274 C131.265477,99.5271274 110.917499,90.9133828 109.173213,80 L109,80 L109,97.5716733 C117.12582,106.081858 135.115669,112 155.998481,112 C176.881292,112 194.871141,106.081858 203,97.5716733 L203,80.2802208 Z" id="Path" fill="#3366FF" fill-rule="nonzero"></path>
                                    <path d="M203,101.283267 C200.95487,112.062631 180.746678,120.530173 156.113956,120.530173 C131.265477,120.530173 110.917499,111.916429 109.173213,101 L109,101 L109,118.574719 C117.12582,127.084904 135.115669,133 155.998481,133 C176.881292,133 194.871141,127.084904 203,118.574719 L203,101.283267 Z" id="Path" fill="#3366FF" fill-rule="nonzero"></path>
                                    <path d="M203,124.280221 C200.954865,135.062631 180.746676,143.527127 156.113956,143.527127 C131.26548,143.527127 110.917504,134.916429 109.173218,124 L109,124 L109,142.951456 C108.998467,143.767858 109.337871,144.547648 109.935963,145.101847 C118.444675,152.9328 135.884495,156 155.998481,156 C176.112467,156 193.54317,152.9328 202.064037,145.101847 C202.662129,144.547648 203.001533,143.767858 203,142.951456 L203,124.280221 Z" id="Path" fill="#3366FF" fill-rule="nonzero"></path>
                                    <ellipse id="Oval" fill="#3366FF" fill-rule="nonzero" opacity="0.1" cx="224.5" cy="175" rx="17.5" ry="3"></ellipse>
                                    <path d="M214.489996,134.002249 C215.376886,134.519603 216.76881,134.857405 218.521033,133.743572 L218.505636,136.211654 C218.628815,137.903705 220.747496,144.072388 220.747496,144.072388 L222.241043,149.145499 C223.313005,152.730748 223.865616,156.447992 223.882405,160.186437 C223.882405,161.421999 223.999425,162.700168 224.359724,163.661837 C225.157309,165.792117 224.051776,168.531049 223.568298,169.54141 C222.759646,169.811628 221.937346,170.04018 221.104716,170.226143 C221.030468,170.243842 220.957438,170.266205 220.886073,170.293095 L220.886073,170.277879 C220.886073,170.277879 218.644212,171.15738 217.646461,171.03565 C216.904307,170.947395 216.439306,171.863416 217.030566,172.535976 C216.547982,172.68155 216.044383,172.747359 215.540098,172.730744 C214.542347,172.609014 214.043472,174.301065 215.912715,174.784943 C217.781958,175.268821 228.372284,174.784943 228.372284,174.784943 C228.984026,174.482174 229.310869,173.808634 229.16679,173.147671 L230.490966,173.092892 C230.490966,173.092892 232.360209,172.246866 230.490966,169.949207 L230.389343,170.022245 L229.99209,168.859721 L229.99209,167.292443 C229.99209,167.292443 232.360209,156.03239 231.611896,154.71466 C230.863582,153.396929 230.46633,146.598292 230.46633,146.598292 L230.728085,139.233609 C231.402491,137.858057 231.747393,135.697344 231.922923,134.008336 C232.177982,133.203507 232.338149,132.372265 232.400242,131.531124 C232.431037,131.132457 232.455673,130.718574 232.47107,130.286432 C232.481405,129.338317 232.327253,128.395464 232.015307,127.498808 C232.860642,126.259663 233.804949,125.089347 234.839189,123.999062 C235.712332,123.196391 236.132243,122.021962 235.963199,120.855377 L235.347303,116.743936 L233.850676,109.744444 C234.038525,107.799802 233.628954,106.679883 233.173191,106.046886 C233.280973,105.416932 233.382596,104.790021 233.459583,104.157023 C233.789027,101.413488 233.641132,98.6344767 233.022297,95.9402277 C232.806733,95.0029044 232.511103,94.0381918 231.842857,93.3260695 C231.088384,92.516563 229.862752,92.0265986 229.57944,90.9705882 C229.539473,90.7014031 229.481869,90.4350654 229.406989,90.1732547 C229.132916,89.4824353 228.270662,89.2298449 227.51311,89.1385472 C226.164298,88.9772545 224.214989,88.8555242 222.918528,89.3789645 C221.780753,89.8761194 220.844107,90.7353267 220.257859,91.8196571 C219.965988,92.2651823 219.85594,92.8035132 219.949911,93.3260695 C219.996021,93.5074559 220.06754,93.6815892 220.162395,93.8434233 C219.264265,96.2496689 220.491529,98.9222326 222.915449,99.8386406 C222.946244,99.9329816 222.973959,100.024279 222.995515,100.112534 C223.05249,100.329471 223.093656,100.550166 223.118694,100.772921 C223.094059,101.198977 223.066343,101.628076 223.047866,102.057175 L223.001674,102.230641 C221.929617,102.699681 220.884134,103.225925 219.869845,103.807048 C220.615078,104.896535 219.743586,109.491853 219.743586,109.491853 C217.874343,110.578296 216.008179,113.359834 218.000601,116.263101 C219.993024,119.166369 218.872094,122.307011 218.872094,122.307011 L218.564146,127.036233 L218.564146,127.036233 L218.564146,127.036233 L218.502556,127.982686 L218.524113,127.982686 L218.502556,128.34179 L218.554907,128.34179 L218.554907,128.728284 C217.680336,129.047826 216.399273,129.68691 215.638641,130.873781 C215.278245,131.455731 214.840091,131.987001 214.336022,132.453231 C214.097661,132.654861 213.973937,132.958804 214.00461,133.267386 C214.035283,133.575968 214.21649,133.85031 214.489996,134.002249 L214.489996,134.002249 Z M229.533248,121.439682 C229.458148,120.621262 229.611522,119.798156 229.976693,119.059855 L230.857424,119.059855 C230.883384,119.252269 230.919359,119.443232 230.965205,119.631987 C231.217722,120.712344 230.207654,121.220568 229.533248,121.439682 L229.533248,121.439682 Z" id="Shape" fill="url(#linearGradient-1)" fill-rule="nonzero"></path>
                                    <path d="M229.539415,168.916965 L230,170.311828 L228.506053,171.823178 L223.563626,173 L220,172.650538 L220.230292,171.372162 L220.230292,171.372162 C220.36866,170.811387 220.804998,170.375729 221.361087,170.24313 C222.837319,169.896655 225.618541,169.102151 226.206082,168 L229.539415,168.916965 Z" id="Path" fill="#DB8B8B" fill-rule="nonzero"></path>
                                    <path d="M229.539415,168.916965 L230,170.311828 L228.506053,171.823178 L223.563626,173 L220,172.650538 L220.230292,171.372162 L220.230292,171.372162 C220.36866,170.811387 220.804998,170.375729 221.361087,170.24313 C222.837319,169.896655 225.618541,169.102151 226.206082,168 L229.539415,168.916965 Z" id="Path" fill="#000000" fill-rule="nonzero" opacity="0.1"></path>
                                    <path d="M220.970593,173.159224 L221.691036,172.297197 L220.970593,171.296581 C220.970593,171.296581 218.815424,172.080998 217.854834,171.972898 C216.894244,171.864798 216.417028,173.375423 218.215055,173.807823 C220.013082,174.240222 230.200877,173.807823 230.200877,173.807823 C230.200877,173.807823 231.998904,173.051124 230.200877,171 L228.642997,172.080998 C228.642997,172.080998 226.004454,173.375423 224.686721,173.159224 L220.970593,173.159224 Z" id="Path" fill="#C17174" fill-rule="nonzero"></path>
                                    <path d="M218,175.650538 L221.563626,176 L226.506053,174.835125 L228,173.323775 L227.878949,172.956392 L227.707706,172.436679 L227.539415,171.928913 L224.200177,171 C224.030755,171.278329 223.799186,171.512595 223.524063,171.68399 C222.440508,172.433692 220.497786,172.974313 219.355182,173.24313 C219.307021,173.254899 219.259679,173.269866 219.213463,173.287933 C218.99117,173.359511 218.788809,173.483365 218.62297,173.649343 C218.42348,173.847361 218.282403,174.097639 218.21553,174.372162 L218,175.650538 Z" id="Path" fill="#DB8B8B" fill-rule="nonzero"></path>
                                    <path d="M218,174.655545 L221.563626,175 L226.506053,173.851816 L228,172.36212 L227.878949,172 L226.506053,173.05103 C226.506053,173.05103 223.97579,174.425908 222.712135,174.196271 L219.145557,174.196271 L219.836433,173.280667 L219.216416,172.326791 C218.994122,172.397343 218.791762,172.519423 218.625923,172.683023 C218.426433,172.878204 218.285356,173.124896 218.218482,173.395486 L218,174.655545 Z" id="Path" fill="#000000" fill-rule="nonzero" opacity="0.1"></path>
                                    <path d="M217.970593,174.158446 L218.691036,173.295623 L217.970593,172.294081 C217.970593,172.294081 215.815424,173.079223 214.854834,172.971023 C213.894244,172.862824 213.417028,174.374846 215.215055,174.807645 C217.013082,175.240444 227.200877,174.807645 227.200877,174.807645 C227.200877,174.807645 228.998904,174.050247 227.200877,172 L225.642997,173.079223 C225.642997,173.079223 223.004454,174.374846 221.686721,174.158446 L217.970593,174.158446 Z" id="Path" fill="#C17174" fill-rule="nonzero"></path>
                                    <path d="M222,104.934337 C222,104.934337 227.990385,105.509649 227.128205,103.254428 C226.881901,102.619243 226.817966,101.938585 226.942308,101.275357 C227.096518,100.454334 227.458346,99.6759541 228,99 L222.384615,99.7824235 C222.722143,100.287531 222.978926,100.832693 223.147436,101.401925 C223.804487,103.777961 222,104.934337 222,104.934337 Z" id="Path" fill="#DB8B8B" fill-rule="nonzero"></path>
                                    <path d="M231,132 C231,132 230.87931,137.157769 229.675508,139.678112 L229.434129,146.995734 C229.434129,146.995734 229.793103,153.712542 230.517241,155.031254 C231.241379,156.349967 228.95137,167.506645 228.95137,167.506645 L228.95137,169.426173 C228.95137,169.426173 225.095491,170.865049 224,169.185847 L225.083112,154.911091 L224.600354,135.121159 L231,132 Z" id="Path" fill="#474463" fill-rule="nonzero"></path>
                                    <path d="M231,132 C231,132 230.87931,137.157769 229.675508,139.678112 L229.434129,146.995734 C229.434129,146.995734 229.793103,153.712542 230.517241,155.031254 C231.241379,156.349967 228.95137,167.506645 228.95137,167.506645 L228.95137,169.426173 C228.95137,169.426173 225.095491,170.865049 224,169.185847 L225.083112,154.911091 L224.600354,135.121159 L231,132 Z" id="Path" fill="#000000" fill-rule="nonzero" opacity="0.1"></path>
                                    <path d="M233.780203,116 L234.420849,117.982723 L234.96841,122.193226 C235.113076,123.385014 234.755422,124.584894 234.007441,125.41714 C232.728887,126.903387 231.023236,130 231.023236,130 L229,122.93794 C229,122.93794 231.023236,122.565583 230.702913,120.955217 C230.38259,119.344851 230.492102,116.372357 230.492102,116.372357 L233.780203,116 Z" id="Path" fill="#FF748E" fill-rule="nonzero"></path>
                                    <path d="M233.785044,116 L234.421411,117.982273 L234.967649,122.195 C235.114054,123.385193 234.758022,124.584485 234.011732,125.415 C232.733536,126.900909 231.034736,130 231.034736,130 L229,122.93 C229,122.93 231.02108,122.557727 230.701531,120.947727 C230.381982,119.337727 230.488498,116.362727 230.488498,116.362727 L233.785044,116 Z" id="Path" fill="#000000" fill-rule="nonzero" opacity="0.05"></path>
                                    <path d="M223,170.674825 C224.766784,172.951272 227.512367,171.659547 228,171.404678 L227.798587,170.912317 L223.805654,170 C223.60564,170.273776 223.329604,170.504987 223,170.674825 Z" id="Path" fill="#000000" fill-rule="nonzero" opacity="0.1"></path>
                                    <path d="M218,137.474121 C218.125196,139.173588 220.247111,145.363388 220.247111,145.363388 L221.746255,150.45867 C222.818724,154.061349 223.372915,157.790837 223.393066,161.541065 C223.355417,162.721747 223.516991,163.900454 223.871379,165.030428 C224.872949,167.702801 222.87302,171.341843 222.87302,171.341843 C224.622557,174.379055 227.620844,172.314748 227.620844,172.314748 L227.620844,170.372055 C227.620844,170.372055 229.996361,159.810415 229.370381,157.746109 C228.7444,155.681802 228.497218,150.100067 228.497218,150.100067 L228.497218,140.021762 C230.49835,138.084098 231.715237,135.511896 231.925667,132.774861 C231.954558,132.375721 231.980239,131.95787 231.99629,131.527546 C232.095805,128.78969 230.1665,125.577854 229.428163,124.433442 C229.248395,124.155914 229.132829,124 229.132829,124 L218.099515,128.253344 L218.073834,128.253344 L218.073834,128.674313 L218.073834,129.59109 L218,137.474121 Z" id="Path" fill="#474463" fill-rule="nonzero"></path>
                                    <path d="M222,99.8736694 C222.360646,100.437682 222.635017,101.046421 222.815068,101.682037 C224.131539,102.150533 225.594099,102.099556 226.869863,101.540708 C227.034636,100.623938 227.421246,99.7547835 228,99 L222,99.8736694 Z" id="Path" fill="#000000" fill-rule="nonzero" opacity="0.1"></path>
                                    <circle id="Oval" fill="#DB8B8B" fill-rule="nonzero" cx="224.5" cy="96.5" r="4.5"></circle>
                                    <path d="M219,129.856538 L219.050554,129.856538 C223.903758,130.953414 230,125.400476 230,125.400476 C229.836577,125.09771 229.695372,124.78114 229.577724,124.453767 C229.411192,124.163226 229.304136,124 229.304136,124 L219.083266,128.452797 L219.056502,128.896771 L219,129.856538 Z" id="Path" fill="#000000" fill-rule="nonzero" opacity="0.1"></path>
                                    <path d="M219.691932,104.810481 C219.691932,104.810481 226.604025,100.724065 228.823505,102.406162 L231.911753,106.251837 C231.911753,106.251837 233.887089,106.853689 233.51929,110.711709 L235,117.680838 L230.561041,118.761083 C230.561041,118.761083 227.970591,121.165402 230.069584,124.649966 C230.069584,124.649966 223.52529,129.936998 218.338049,128.853665 L218.709019,123.20861 C218.709019,123.20861 219.818759,120.08207 217.846593,117.199357 C215.874427,114.316644 217.722936,111.551215 219.574616,110.470969 C219.568275,110.458623 220.430701,105.890727 219.691932,104.810481 Z" id="Path" fill="#FF748E" fill-rule="nonzero"></path>
                                    <path d="M219.861101,129 C219.861101,129 217.543459,129.483476 216.441304,131.414282 C216.122544,131.994556 215.733712,132.525168 215.285316,132.991777 C215.081161,133.195002 214.976946,133.491901 215.004302,133.792358 C215.031658,134.092815 215.18736,134.361399 215.424148,134.516587 C216.299639,135.093039 217.72479,135.446349 219.529605,133.825464 C222.632072,131.051674 219.861101,129 219.861101,129 Z" id="Path" fill="#DB8B8B" fill-rule="nonzero"></path>
                                    <path d="M223.190921,108.090187 C223.190921,108.090187 225.653562,107.850138 226.270804,114.079111 C226.888047,120.308085 227.87247,121.748381 227.87247,121.748381 C227.87247,121.748381 228.489713,124.982892 227.00833,126.90021 C225.526948,128.817527 222.697126,132.892211 222.697126,132.892211 C222.697126,132.892211 219.617243,133.729306 219,130.737922 L222.820575,123.7888 C222.820575,123.7888 223.434653,121.391384 221.956435,119.714116 C220.478218,118.036848 219.370346,106.88994 223.190921,108.090187 Z" id="Path" fill="#000000" fill-rule="nonzero" opacity="0.1"></path>
                                    <path d="M222.179806,108.089766 C222.179806,108.089766 224.645226,107.849713 225.263165,114.081869 C225.881105,120.314025 226.866639,121.74819 226.866639,121.74819 C226.866639,121.74819 227.500423,124.982757 226.004693,126.900106 C224.508962,128.817456 221.701299,132.892209 221.701299,132.892209 C221.701299,132.892209 218.617939,133.729319 218,130.737884 L221.824887,123.788645 C221.824887,123.788645 222.442826,121.391188 220.959772,119.713892 C219.476717,118.036595 218.354919,106.892576 222.179806,108.089766 Z" id="Path" fill="#FF748E" fill-rule="nonzero"></path>
                                    <path d="M221.026494,112 C221.026494,112 220.742722,115.758173 222.032595,117.819408 C223.322468,119.880643 223.322468,122.545926 222.032595,124" id="Path" fill="#000000" fill-rule="nonzero" opacity="0.1"></path>
                                    <path d="M220,108 C220,108 220.998796,107.059002 223.876355,106.940998 C226.753914,106.822995 228,106 228,106" id="Path" fill="#000000" fill-rule="nonzero" opacity="0.1"></path>
                                    <path d="M226.833335,91.1372317 C227.530584,91.2277675 228.324919,91.4806433 228.574987,92.1737106 C228.643848,92.4375193 228.69788,92.7054361 228.736796,92.9760452 C228.995691,94.0374995 230.122469,94.5370074 230.816777,95.3424639 C231.428709,96.0605065 231.699371,97.0283031 231.899426,97.9742462 C232.469773,100.683199 232.606029,103.47475 232.302477,106.231736 C232.078887,108.245378 231.619938,110.230922 231.493432,112.253929 C231.366927,114.276936 231.599344,116.40921 232.640805,118.110659 C233.090928,118.841189 233.682266,119.484306 234,120.296006 C233.343938,120.861074 232.437808,120.942244 231.590518,120.973464 C230.609857,121.008845 229.624294,121.008845 228.633827,120.973464 C228.11536,120.995417 227.59985,120.880646 227.133417,120.639418 C226.803396,120.416351 226.532114,120.108067 226.344966,119.743425 C225.780106,118.7288 225.63889,117.508128 225.662426,116.331162 C225.685962,115.154196 225.862481,113.983475 225.883075,112.803387 C225.941537,112.159611 225.806639,111.512706 225.497675,110.955208 C225.213356,110.604535 224.891489,110.290222 224.53859,110.018631 C223.311784,108.863519 222.89108,107.015339 222.849893,105.276427 C222.808705,103.537516 223.079367,101.798604 222.941094,100.065936 C222.888138,99.388478 222.646896,98.5736557 222.020254,98.4425349 C221.822245,98.4340107 221.62534,98.4068474 221.431858,98.3613648 C220.928779,98.1553178 220.978793,97.402934 220.843462,96.8503534 C220.681653,96.2259685 220.181516,95.7483141 220.040301,95.1239292 C219.710799,93.6535028 221.475988,91.8958593 222.632186,91.3776198 C223.788385,90.8593804 225.594761,90.9748916 226.833335,91.1372317 Z" id="Path" fill="#000000" fill-rule="nonzero" opacity="0.1"></path>
                                    <path d="M226.833335,90.1319622 C227.530584,90.2224904 228.324919,90.4753448 228.574987,91.1714748 C228.644147,91.4341283 228.698183,91.7010028 228.736796,91.9706197 C228.995691,93.0319839 230.122469,93.5314494 230.816777,94.3368375 C231.428709,95.0548192 231.699371,96.0225336 231.899426,96.9683965 C232.469786,99.6803234 232.605052,102.474892 232.299535,105.234551 C232.078887,107.248021 231.619938,109.233397 231.493432,111.259353 C231.366927,113.28531 231.599344,115.411161 232.640805,117.112465 C233.090928,117.846055 233.682266,118.485995 234,119.297627 C233.343938,119.865769 232.437808,119.94381 231.590518,119.975027 C230.609857,120.008324 229.624294,120.008324 228.633827,119.975027 C228.115597,119.998079 227.60007,119.884386 227.133417,119.644131 C226.803274,119.419898 226.532026,119.110604 226.344966,118.745093 C225.780106,117.730554 225.63889,116.509985 225.662426,115.333119 C225.685962,114.156253 225.862481,112.985631 225.883075,111.808766 C225.883075,111.165704 225.847771,110.485182 225.497675,109.960743 C225.214023,109.609416 224.892076,109.295052 224.53859,109.024245 C223.311784,107.869231 222.89108,106.021209 222.849893,104.282445 C222.808705,102.54368 223.079367,100.804916 222.941094,99.0723949 C222.888138,98.3949948 222.646896,97.5802417 222.020254,97.449132 C221.822245,97.4406086 221.62534,97.4134476 221.431858,97.3679689 C220.928779,97.1619393 220.978793,96.4096194 220.843462,95.8570857 C220.681653,95.2327538 220.181516,94.7582616 220.040301,94.130808 C219.710799,92.6605064 221.475988,90.9030121 222.632186,90.3848167 C223.788385,89.8666212 225.603587,89.9696359 226.833335,90.1319622 Z" id="Path" fill="#464353" fill-rule="nonzero"></path>
                                    <path d="M39,174.716802 C39,174.716802 42.227345,174.61901 43.1967527,173.937426 C44.1661604,173.255841 48.1581935,172.440904 48.3990402,173.534402 C48.6398868,174.6279 53.2460788,178.969294 49.6032734,178.998928 C45.9604679,179.028562 41.1435351,178.438844 40.1711168,177.858015 C39.1986985,177.277187 39,174.716802 39,174.716802 Z" id="Path" fill="#A8A8A8" fill-rule="nonzero"></path>
                                    <path d="M49.6687728,179.559621 C46.0292281,179.594216 41.209616,178.909235 40.2402749,178.231173 C39.5027328,177.712248 39.2077159,175.857956 39.1083735,175 L39,175 C39,175 39.2047056,177.989008 40.1740467,178.66707 C41.1433878,179.345132 45.9629999,180.030113 49.6055549,179.998977 C50.6561762,179.998977 51.0174213,179.559621 50.999359,178.923073 C50.8518506,179.320915 50.4514706,179.559621 49.6687728,179.559621 Z" id="Path" fill="#000000" fill-rule="nonzero" opacity="0.2"></path>
                                    <path d="M247,132.144675 C247,132.144675 249.14867,132.07849 249.797656,131.623829 C250.446642,131.169167 253.103977,130.628177 253.264762,131.356211 C253.425546,132.084246 256.497998,134.979116 254.068686,134.999259 C251.639373,135.019403 248.429523,134.625171 247.783461,134.239572 C247.137398,133.853973 247,132.144675 247,132.144675 Z" id="Path" fill="#A8A8A8" fill-rule="nonzero"></path>
                                    <path d="M254.113485,135.736363 C251.686772,135.754505 248.47357,135.343294 247.827421,134.938131 C247.333308,134.635771 247.137416,133.514013 247.073094,133 L247,133 C247,133 247.137416,134.792998 247.783565,135.201185 C248.429714,135.609372 251.642916,136.017558 254.069629,135.999417 C254.771329,135.999417 255.014,135.736363 254.999382,135.352365 C254.902898,135.588206 254.636837,135.730316 254.113485,135.736363 Z" id="Path" fill="#000000" fill-rule="nonzero" opacity="0.2"></path>
                                    <circle id="Oval" fill="#3366FF" fill-rule="nonzero" opacity="0.1" cx="10" cy="7" r="7"></circle>
                                    <circle id="Oval" fill="#3366FF" fill-rule="nonzero" opacity="0.1" cx="294" cy="25" r="7"></circle>
                                    <circle id="Oval" fill="#3366FF" fill-rule="nonzero" opacity="0.1" cx="5" cy="32" r="5"></circle>
                                    <circle id="Oval" fill="#3366FF" fill-rule="nonzero" opacity="0.1" cx="54" cy="5" r="5"></circle>
                                    <circle id="Oval" fill="#3366FF" fill-rule="nonzero" opacity="0.1" cx="255" cy="6" r="5"></circle>
                                    <path d="M272.30904,198 C272.30904,198 273.510192,199.604409 271.753507,202.026332 C269.996822,204.448255 268.546431,206.490508 269.131993,208 C269.131993,208 271.783536,203.505205 273.936601,203.440906 C276.089666,203.376607 274.681315,200.706675 272.30904,198 Z" id="Path" fill="#FC6681" fill-rule="nonzero"></path>
                                    <path d="M272.28172,198 C272.387289,198.155634 272.470105,198.325779 272.527621,198.505205 C274.652694,201.028169 275.794162,203.382731 273.741949,203.440906 C271.835455,203.49602 269.549483,206.934476 269,207.804042 C269.018171,207.870708 269.040477,207.936156 269.066788,208 C269.066788,208 271.747416,203.505205 273.924098,203.440906 C276.10078,203.376607 274.680017,200.706675 272.28172,198 Z" id="Path" fill="#000000" fill-rule="nonzero" opacity="0.1"></path>
                                    <path d="M273.96,199.526987 C273.96,200.338467 273.75,201 273.5,201 C273.25,201 273.04,200.338467 273.04,199.526987 C273.04,198.715506 273.3,199.085965 273.55,199.085965 C273.8,199.085965 273.96,198.711096 273.96,199.526987 Z" id="Path" fill="#FFD037" fill-rule="nonzero"></path>
                                    <path d="M275.527897,200.504071 C274.747994,200.856094 274.083632,201.068107 274.006605,200.980102 C273.929577,200.892096 274.536168,200.532072 275.311257,200.180049 C276.086346,199.828026 275.792678,200.084043 275.845635,200.180049 C275.898591,200.276056 276.3078,200.152048 275.527897,200.504071 Z" id="Path" fill="#FFD037" fill-rule="nonzero"></path>
                                    <path d="M265.690614,198 C265.690614,198 264.489336,199.604409 266.246205,202.026332 C268.003073,204.448255 269.453616,206.490508 268.867993,208 C268.867993,208 266.213169,203.505205 264.062882,203.440906 C261.912595,203.376607 263.315087,200.706675 265.690614,198 Z" id="Path" fill="#FC6681" fill-rule="nonzero"></path>
                                    <path d="M265.719309,198 C265.613287,198.155854 265.529443,198.325908 265.47022,198.505205 C263.343846,201.028169 262.204718,203.382731 264.255149,203.440906 C266.16281,203.49602 268.453218,206.934476 269,207.804042 C268.981774,207.86834 268.96051,207.935701 268.936209,208 C268.936209,208 266.250903,203.505205 264.075926,203.440906 C261.90095,203.376607 263.316507,200.706675 265.719309,198 Z" id="Path" fill="#000000" fill-rule="nonzero" opacity="0.1"></path>
                                    <path d="M263.035,199.526987 C263.035,200.338467 263.245,201 263.505,201 C263.765,201 263.965,200.338467 263.965,199.526987 C263.965,198.715506 263.705,199.085965 263.445,199.085965 C263.185,199.085965 263.035,198.711096 263.035,199.526987 Z" id="Path" fill="#FFD037" fill-rule="nonzero"></path>
                                    <path d="M262.23605,200.504071 C262.62741,200.856094 262.960791,201.068107 262.997028,200.980102 C263.033265,200.892096 262.733705,200.532072 262.342345,200.180049 C261.950985,199.828026 262.100765,200.084043 262.076607,200.180049 C262.052449,200.276056 261.84469,200.152048 262.23605,200.504071 Z" id="Path" fill="#FFD037" fill-rule="nonzero"></path>
                                    <path d="M263,207.716296 C263,207.716296 266.494382,207.617028 267.545816,206.936329 C268.597251,206.255631 272.921549,205.441628 273.183627,206.533582 C273.445706,207.625537 278.43144,211.970663 274.48778,211.999025 C270.544121,212.027388 265.321268,211.431776 264.272953,210.864528 C263.224639,210.297279 263,207.716296 263,207.716296 Z" id="Path" fill="#A8A8A8" fill-rule="nonzero"></path>
                                    <path d="M274.560688,211.560808 C270.613517,211.593953 265.393265,210.8979 264.341726,210.234992 C263.542931,209.717923 263.221541,207.858466 263.115451,207 L263,207 C263,207 263.221541,209.983087 264.27308,210.672511 C265.324619,211.361936 270.54487,212.038102 274.488922,211.998327 C275.627829,211.998327 276.020986,211.557493 275.999144,210.921102 C275.843129,211.312217 275.406288,211.554179 274.560688,211.560808 Z" id="Path" fill="#000000" fill-rule="nonzero" opacity="0.2"></path>
                                </g>
                            </g>
                        </g>
                    </g>
                </g>
            </g>
        </g>
    </g>
</svg>