<?xml version="1.0" encoding="UTF-8"?>
<svg width="24px" height="24px" viewBox="0 0 24 24" version="1.1" xmlns="http://www.w3.org/2000/svg" xmlns:xlink="http://www.w3.org/1999/xlink">
    <title>371F9929-BD77-4F03-8952-2965FAFFDED2</title>
    <g id="Design" stroke="none" stroke-width="1" fill="none" fill-rule="evenodd">
        <g id="Dark/Start/Sign-In" transform="translate(-672.000000, -296.000000)">
            <g id="Pop-Up" transform="translate(522.000000, 224.000000)">
                <g id="SSO" transform="translate(30.000000, 72.000000)">
                    <g id="Epam" transform="translate(120.000000, 0.000000)">
                        <rect id="Rectangle" fill="#FFFFFF" x="0" y="0" width="24" height="24" rx="2"></rect>
                        <path d="M22,0 C23.1045695,-2.02906125e-16 24,0.8954305 24,2 L24,22 C24,23.1045695 23.1045695,24 22,24 L2,24 C0.8954305,24 1.3527075e-16,23.1045695 0,22 L0,2 C-1.3527075e-16,0.8954305 0.8954305,2.02906125e-16 2,0 L22,0 Z M12.1890892,5.70731707 L11.8238493,5.70731707 C9.97413192,5.70731707 9.03804878,6.64868617 9.03804878,8.72614713 L9.03804878,8.72614713 L9.03804878,15.7974323 C9.03804878,17.4394093 9.97413192,18.3805993 11.8238493,18.3805993 L11.8238493,18.3805993 L12.1890892,18.3805993 C14.0388066,18.3805993 14.9748897,17.4394093 14.9748897,15.5797799 L14.9748897,15.5797799 L14.9748897,14.2251399 L13.2851652,14.2251399 L13.2851652,15.6485688 C13.2851652,16.3832129 12.9199253,16.7506245 12.1890892,16.7506245 L12.1890892,16.7506245 L11.8694597,16.7506245 C11.1388018,16.7506245 10.7733837,16.3832129 10.7733837,15.6485688 L10.7733837,15.6485688 L10.7678606,12.7526273 L14.9693666,12.7526273 L14.9748897,8.50849472 C14.9748897,6.64868617 14.0388066,5.70731707 12.1890892,5.70731707 L12.1890892,5.70731707 Z M6.49695121,6.61756098 L1.75609756,11.0765123 L1.75609756,12.830384 L6.49695121,17.2370732 L6.49695121,14.8009842 L3.39169775,11.9273171 L6.49695121,9.00138784 L6.49695121,6.61756098 Z M17.4146341,6.61756098 L17.4146341,9.00138784 L20.5198876,11.9273171 L17.4146341,14.8009842 L17.4146341,17.2370732 L22.1554878,12.830384 L22.1554878,11.0765123 L17.4146341,6.61756098 Z M12.1434787,7.33747097 C12.8743149,7.33747097 13.2393766,7.70488258 13.2393766,8.43952666 L13.2393766,8.43952666 L13.2393766,11.0724939 L10.7733837,11.0724939 L10.7733837,8.43952666 C10.7733837,7.70488258 11.1388018,7.33747097 11.8694597,7.33747097 L11.8694597,7.33747097 Z" id="Combined-Shape" fill="#30B6DD"></path>
                    </g>
                </g>
            </g>
        </g>
    </g>
</svg>