<?xml version="1.0" encoding="UTF-8"?>
<svg width="420px" height="694px" viewBox="0 0 420 694" version="1.1" xmlns="http://www.w3.org/2000/svg" xmlns:xlink="http://www.w3.org/1999/xlink">
    <title>2F198105-BF37-4E98-AD4C-E8CFE52DFB67</title>
    <g id="Design" stroke="none" stroke-width="1" fill="none" fill-rule="evenodd">
        <g id="404" transform="translate(-799.000000, -72.000000)">
            <g id="Image" transform="translate(799.000000, 72.000000)">
                <polyline id="Fill-2" fill="#FDD305" opacity="0.5" points="311.789461 0 107.726394 0 0 635.838462 419.532267 635.838462 311.789461 0"></polyline>
                <path d="M257.269797,442.618604 C259.91208,450.015357 256.055331,458.155559 248.653655,460.796202 C241.251978,463.438485 233.111775,459.583377 230.469492,452.184983 C227.827208,444.78823 231.683958,436.649669 239.085634,434.005744 C246.48731,431.365102 254.627513,435.22021 257.269797,442.618604" id="Fill-5" fill="#EEA69E"></path>
                <polyline id="Fill-6" fill="#D8DFE9" points="201.289491 507.915831 188.14372 512.607936 167.448567 454.646738 180.594338 449.956275 201.289491 507.915831"></polyline>
                <polyline id="Fill-7" fill="#D8DFE9" points="290.552723 476.04267 277.406952 480.734775 256.711799 422.773577 269.841158 418.083114 290.552723 476.04267"></polyline>
                <path d="M298.479573,427.900592 L187.963191,467.362523 C180.151222,470.157435 171.53508,466.079128 168.745091,458.255671 L146.753414,396.688822 L257.138503,357.272844 C265.03253,354.453315 273.714319,358.567728 276.537131,366.463396 L298.479573,427.900592" id="Fill-8" fill="#EDF1F7"></path>
                <polyline id="Fill-9" fill="#EDF1F7" points="223.576578 499.95944 210.430807 504.649903 189.735654 446.691988 202.881425 441.999883 223.576578 499.95944"></polyline>
                <polyline id="Fill-10" fill="#EDF1F7" points="312.823398 468.086279 299.694039 472.776742 278.998886 414.817185 292.128246 410.126722 312.823398 468.086279"></polyline>
                <path d="M168.285564,384.934763 L168.006565,384.140437 C166.431042,379.743743 161.58959,377.451029 157.191255,379.021628 L127.486079,389.626868 C123.087744,391.197468 120.806518,396.035637 122.365629,400.433972 L122.66104,401.228298 L106.692456,406.92644 C106.692456,406.92644 114.668542,419.189262 124.20374,405.572475 L135.31446,436.680851 C138.957857,446.880722 150.183459,452.196471 160.375125,448.553074 L169.073325,445.449622 C179.26499,441.807866 184.582381,430.587187 180.938984,420.387316 L169.828263,389.27894 C185.82967,393.777387 184.237735,379.238263 184.237735,379.238263 L168.285564,384.934763" id="Fill-11" fill="#222B45"></path>
                <path d="M257.138503,357.271203 L219.769064,370.613915 C223.133462,373.620538 227.023035,375.967411 230.896196,378.26669 C235.491472,380.984467 240.201629,383.753121 245.453373,384.659047 C253.790516,386.098353 262.209718,382.64369 269.463689,378.281461 C272.696794,376.333392 275.864252,374.12766 278.227536,371.194889 L276.537131,366.463396 C273.714319,358.567728 265.03253,354.453315 257.138503,357.271203" id="Fill-12" fill="#222B45"></path>
                <path d="M221.902585,399.122677 C225.070043,401.505656 228.106207,404.128246 230.469492,407.315398 C232.832777,410.50255 234.490358,414.306782 234.621652,418.270207 C234.867827,425.169685 230.239728,431.765547 223.954047,434.63103 C217.668366,437.494871 210.118985,436.866303 203.948186,433.757927 C197.793799,430.646269 192.968759,425.25995 189.702831,419.17285 C187.47084,414.979661 185.895317,410.351562 185.764023,405.598734 C185.616318,400.845906 187.011312,395.958502 190.129535,392.359416 C198.18768,383.032648 214.484497,393.55747 221.902585,399.122677" id="Fill-13" fill="#222B45"></path>
                <polyline id="Fill-2-Copy" fill="#FDD305" opacity="0.1" points="311.789461 0 107.726394 0 0 635.838462 419.532267 635.838462 311.789461 0"></polyline>
                <path d="M0,635.838462 C0,667.849481 93.9077428,693.79966 209.757927,693.79966 C325.608112,693.79966 419.532267,667.849481 419.532267,635.838462 C419.532267,603.825802 325.608112,577.873982 209.757927,577.873982 C93.9077428,577.873982 0,603.825802 0,635.838462" id="Fill-3" fill="#FFEE99"></path>
            </g>
        </g>
    </g>
</svg>