<?xml version="1.0" encoding="UTF-8"?>
<svg width="643px" height="516px" viewBox="0 0 643 516" version="1.1" xmlns="http://www.w3.org/2000/svg" xmlns:xlink="http://www.w3.org/1999/xlink">
    <title>D027C75E-B485-473E-AC62-AB5E212D0255</title>
    <g id="Design" stroke="none" stroke-width="1" fill="none" fill-rule="evenodd">
        <g id="Dark/Start/" transform="translate(-785.000000, -229.000000)" fill-rule="nonzero">
            <g id="1" transform="translate(12.000000, 229.000000)">
                <g id="Image" transform="translate(773.000000, 0.000000)">
                    <path d="M424.568341,288.695995 C411.074139,296.788517 387.032165,306.928484 362.463832,296.507753 L346.582329,289.771433 L378.407759,254.097011 C325.784016,196.076767 325.874608,107.567077 378.61701,49.6546683 C431.359412,-8.25774041 519.478474,-16.6043429 582.157069,30.3754349 C644.835663,77.3552128 661.544158,164.2737 620.750851,231.14237 C579.957545,298.011039 495.023803,322.927849 424.568341,288.695966 L424.568341,288.695995 Z M363.589707,151.750195 C363.448908,186.978789 378.027235,220.665769 403.806014,244.677957 L412.584604,252.927074 L392.558028,275.37518 C402.989552,273.258742 412.075136,267.615849 416.682088,264.338418 L423.003369,259.840656 L429.802038,263.576141 C448.594764,273.865054 469.675625,279.254842 491.100781,279.254842 C561.409912,279.254842 618.61083,222.056707 618.61083,151.750224 C618.61083,81.4440809 561.409912,24.2456062 491.100781,24.2456062 C420.79165,24.2456062 363.589707,81.4440809 363.589707,151.750224 L363.589707,151.750195 Z" id="Shape" fill="#222B45"></path>
                    <path d="M350,153.499929 C350,76.456221 412.680227,14 490.00005,14 C567.319873,14 630,76.456221 630,153.499929 C630,230.543637 567.319858,293 490.000036,293 C466.468171,293.034183 443.310749,287.130564 422.686869,275.839424 C413.00923,282.700479 389.400496,296.385533 366.077726,286.527792 L394.152143,255.16943 C365.942493,228.832559 349.955569,192.01926 350,153.499929 L350,153.499929 Z" id="Path" fill="#3366FF"></path>
                    <path d="M607.150811,153.499989 C607.150811,80.6120873 550.816684,20.7912516 479,14.5485215 C483.094765,14.1925888 487.236753,14 491.424598,14 C569.06227,14 632,76.4562576 632,153.5 C632,230.54375 569.062241,293 491.424598,293 C487.243081,293 483.108278,292.8049 479.019674,292.449746 C550.82691,286.197843 607.150811,226.381186 607.150811,153.499989 Z" id="Path" fill="#000000" opacity="0.1"></path>
                    <path d="M168.578994,484 C96.5036373,484.033925 34.2469495,433.599928 19.3209168,363.086364 C4.39488422,292.5728 40.8760312,221.237986 106.7831,192.063819 C172.690169,162.889653 250.022946,183.844037 292.185537,242.301172 C334.348128,300.758307 329.825294,380.752668 281.342211,434.084655 L313.187473,469.783147 L297.296081,476.524014 C272.712431,486.951779 248.655475,476.804974 235.152865,468.706984 C214.401257,478.766937 191.640434,483.995433 168.578994,484 Z M168.578994,204.078061 C98.2260504,204.078061 40.9894875,261.315147 40.9894875,331.668734 C40.9894875,402.022669 98.2260504,459.259408 168.578994,459.259408 C190.0175,459.259408 211.111498,453.865988 229.915934,443.570132 L236.71884,439.832126 L243.04406,444.332917 C247.653883,447.612567 256.745129,453.259269 267.183153,455.377128 L247.144098,432.913878 L255.928159,424.659194 C281.722994,400.630804 296.310405,366.921097 296.169526,331.668734 C296.169526,261.315147 238.931915,204.078061 168.578994,204.078061 Z" id="Shape" fill="#222B45"></path>
                    <path d="M308,331.499929 C308,254.456221 245.319773,192 167.99995,192 C90.6801274,192 28,254.456221 28,331.499929 C28,408.543637 90.6801346,471 167.99995,471 C191.531814,471.034182 214.689236,465.130563 235.313116,453.839425 C244.990755,460.700479 268.599489,474.385533 291.922252,464.527792 L263.847835,433.169408 C292.057487,406.832546 308.04442,370.019255 308,331.499929 Z" id="Path" fill="#3366FF"></path>
                    <path d="M51.849189,330.499989 C51.849189,257.612084 108.183316,197.791258 180,191.548521 C175.905235,191.192596 171.763247,191 167.575402,191 C89.9377296,191 27,253.456254 27,330.5 C27,407.543753 89.9377296,470 167.575402,470 C171.756919,470 175.891722,469.8049 179.980326,469.449746 C108.173076,463.197836 51.849189,403.381182 51.849189,330.499989 Z" id="Path" fill="#000000" opacity="0.1"></path>
                    <path d="M523.718417,108.283649 C514.55376,92.7809504 496.422223,92.0584791 496.422223,92.0584791 C496.422223,92.0584791 478.754071,89.7965755 467.420059,113.407375 C456.855862,135.414579 442.275922,156.662985 465.072812,161.814709 L469.190592,148.984041 L471.74071,162.769936 C474.98655,163.003644 478.242733,163.059349 481.494654,162.936802 C505.908275,162.147708 529.158571,163.167672 528.409946,154.397265 C527.414772,142.738258 532.536654,123.200343 523.718417,108.283649 Z" id="Path" fill="#2F2E41"></path>
                    <path d="M464.673228,243.284715 C464.406337,245.019114 464.018944,246.73168 463.514015,248.409295 C462.945364,250.051376 462.067427,251.569993 461.547488,253.229025 C459.890153,258.517257 462.18771,264.413513 465.857274,268.49535 C469.039512,272.020972 473.147112,274.525766 477.684598,275.707593 C481.025252,276.44167 484.432372,276.809355 487.848644,276.804464 C497.295429,277.133429 506.985253,277.427741 515.936653,274.310028 C518.764753,273.300757 521.496411,272.026361 524.097072,270.502962 C524.918191,270.101214 525.641605,269.516266 526.214523,268.790806 C526.814176,267.728252 527.080948,266.501954 526.978629,265.278355 C526.958509,261.165753 526.14666,257.074124 526.33942,252.966238 C526.446194,250.690888 526.860868,248.417294 526.656747,246.148961 C526.077858,240.870383 522.331892,236.53451 517.297284,235.315591 C514.757974,234.755607 512.124199,235.060744 509.538913,235.316019 C502.828222,235.9782 496.088955,236.287655 489.347495,236.243171 C482.459445,236.198017 475.613919,235.118244 468.760174,235.00548 C466.733314,234.972125 466.774259,235.613814 466.128985,237.628273 C465.534612,239.482342 465.048495,241.371178 464.673228,243.284715 Z" id="Path" fill="#2F2E41"></path>
                    <path d="M483.362045,143.25719 C483.025808,144.990991 482.662374,146.788163 481.604364,148.212963 C480.387089,149.852246 478.402369,150.788893 477.092845,152.357695 C475.121753,154.719093 475.008613,158.041959 475.000489,161.098753 C474.993007,163.914727 475.051088,166.918271 476.64571,169.255739 C477.780649,170.707811 479.189227,171.930784 480.794327,172.857702 C486.774466,176.826438 493.236624,180.866431 500.446753,180.997314 C503.434176,181.051542 506.637361,180.291782 508.603037,178.075752 C509.451746,177.034845 510.119076,175.862398 510.577808,174.606232 C512.421377,170.130839 513.538927,165.397821 513.889519,160.580561 C514.155173,158.315914 513.940492,156.021618 513.259068,153.842913 C512.383147,151.437962 510.612093,149.459165 509.441578,147.179008 C508.057936,144.467643 507.551878,141.403646 507.991651,138.40022 C508.049898,138.188735 508.031913,137.963907 507.94076,137.764011 C507.745606,137.547128 507.458666,137.43263 507.165249,137.454558 L492.868759,136.441018 C491.537269,136.375855 490.211409,136.226485 488.899377,135.993831 C488.128683,135.839507 486.093116,134.761611 485.358255,135.048234 C483.997884,135.578819 483.640873,141.819444 483.362045,143.25719 Z" id="Path" fill="#A0616A"></path>
                    <path d="M483.36205,143.257176 C483.025813,144.990977 482.662379,146.788141 481.604368,148.212949 C480.387092,149.852224 478.402371,150.788872 477.092846,152.357681 C475.121753,154.719086 475.008613,158.041952 475.000489,161.098739 C474.993007,163.914713 475.051088,166.918256 476.64571,169.255732 C477.780642,170.707805 479.189214,171.93078 480.794308,172.857702 C486.77445,176.826438 493.236612,180.866431 500.446745,180.997314 C503.43417,181.051542 506.637356,180.291782 508.603034,178.075752 C509.451744,177.034846 510.119075,175.862398 510.577806,174.606232 C512.421376,170.130839 513.538927,165.397821 513.889519,160.580561 C514.155173,158.315914 513.940492,156.021618 513.259067,153.842913 C512.383146,151.437954 510.612091,149.459165 509.441575,147.179001 C508.057939,144.467634 507.551889,141.403636 507.99167,138.400213 C508.049915,138.18873 508.031931,137.963904 507.940779,137.764011 C507.745627,137.547123 507.458685,137.432621 507.165267,137.454551 L492.868769,136.441011 C491.537278,136.375851 490.211417,136.226481 488.899385,135.993824 C488.128691,135.839507 486.093122,134.761611 485.35826,135.048234 C483.997889,135.578833 483.640878,141.819423 483.36205,143.257176 Z" id="Path" fill="#000000" opacity="0.1"></path>
                    <circle id="Oval" fill="#A0616A" cx="497" cy="125" r="21"></circle>
                    <path d="M486.527158,170.948293 C487.55622,172.143595 488.796703,173.137804 490.186087,173.880814 C491.634522,174.481256 493.190059,174.778325 494.757137,174.753772 C498.512179,174.859715 502.582936,174.169587 505.1951,171.46183 C508.562346,167.971389 508.451444,162.341633 511.090793,158.269559 C511.303455,157.900367 511.593669,157.582014 511.941294,157.336599 C512.384011,157.094845 512.884337,156.979463 513.387867,157.002998 C516.721287,156.971731 519.625018,159.140226 522.245634,161.206784 C523.47904,162.058158 524.537548,163.139683 525.363398,164.392347 C525.881563,165.406433 526.23641,166.496402 526.414766,167.621784 C527.715234,173.989229 528.136406,180.499723 528.554396,186.985858 C528.785269,190.568434 529.016259,194.154472 528.9991,197.744493 C528.942554,209.572084 526.201712,221.201881 523.476115,232.70933 C523.124922,234.19206 522.644319,235.849403 521.29997,236.559622 C520.700726,236.829867 520.057095,236.987433 519.401103,237.024477 C511.594472,237.944065 503.771689,238.864773 495.912332,238.986182 C492.845237,239.033562 489.779479,238.959094 486.715057,238.762779 C486.187528,238.75579 485.664498,238.664336 485.16573,238.491871 C484.488799,238.165863 483.907068,237.670358 483.47667,237.053169 C479.225452,231.679931 478.974512,224.251339 479.00169,217.391822 C479.068124,200.620897 479.665526,183.86337 480.793896,167.119242 C480.887059,165.73719 480.907401,164.058746 479.914536,162.971517 C481.847736,165.845184 484.062996,168.517443 486.527158,170.948293 Z" id="Path" fill="#FFFFFF"></path>
                    <path d="M481.58858,146.859233 C480.875468,148.13111 475.618007,151.289379 474.603026,152.343528 C468.931994,158.233191 458.581633,158.012191 453.395071,164.320485 C451.570282,166.539942 450.62221,169.328667 449.924933,172.101145 C448.938763,176.022339 448.412182,180.298749 450.064218,183.996097 C451.653833,187.553769 455.000168,190.013346 457.272108,193.191286 C459.766686,196.680593 460.888277,200.917338 461.963142,205.051922 C462.756785,208.104759 463.556983,211.233209 463.247905,214.369846 C462.896482,217.93614 461.144965,221.201602 460.110813,224.636726 C459.076662,228.071851 458.898176,232.163156 461.289283,234.862731 C463.045951,236.846042 465.801324,237.632306 468.435018,238.074611 C471.808244,238.574011 475.209781,238.865778 478.619848,238.948215 C481.630491,239.079255 484.949096,239.10476 487.263535,237.203106 C489.089743,235.702605 489.883467,233.26765 489.986196,230.926978 C490.088926,228.586307 489.594662,226.266297 489.285055,223.943355 C488.96411,221.535267 488.84077,219.106205 488.737577,216.679583 C488.274539,205.791613 488.211348,194.89664 488.548004,183.994664 C488.717626,181.728835 488.604854,179.451065 488.21221,177.212262 C487.566544,174.295937 485.966869,171.689646 484.632097,169.010075 C481.964455,163.963295 480.756176,158.291095 481.13932,152.613419 C481.543589,146.778539 484.126128,142.333261 481.58858,146.859233 Z" id="Path" fill="#FFFFFF"></path>
                    <path d="M511.168553,148.336212 C512.235551,149.43739 515.861193,149.800405 517.218498,150.509583 C518.495222,151.101807 519.82747,151.564982 521.195548,151.89226 C526.146544,153.326462 530.855837,155.496798 535.166875,158.33112 C536.062609,158.857337 536.85453,159.544199 537.503264,160.357556 C538.186686,161.473927 538.627134,162.722868 538.795672,164.022322 C539.460282,167.328059 540.128205,170.67366 539.978858,174.042728 C539.820322,177.618977 538.747528,181.08255 537.683258,184.499121 L533.706598,197.265115 C530.738304,206.794031 527.751179,216.416756 526.915921,226.365655 C526.453837,231.879581 526.659282,237.429427 527.527761,242.893689 C527.69294,243.431463 527.619875,244.01459 527.32718,244.494518 C527.065189,244.754559 526.720483,244.913823 526.353366,244.944449 C524.434062,245.245799 522.576637,244.263153 520.837688,243.393601 C515.522699,240.737665 509.850486,238.874 504,237.861402 C506.286183,234.54383 508.050087,230.892608 509.229731,227.036036 C509.899672,224.587225 510.427256,222.101372 510.809812,219.591061 L512.659701,208.847539 C513.412321,204.920726 513.942135,200.954146 514.246581,196.966976 C514.386427,195.470678 514.299612,193.96174 513.989094,192.491569 C513.562776,191.092501 512.996714,189.740288 512.299538,188.455547 C509.250814,182.087665 507.820348,174.820762 509.019897,167.858652 C509.54486,164.811829 510.565021,161.760933 510.139629,158.698498 C509.73063,155.754094 510.155689,153.465772 509.403337,150.551853 C506.314301,138.587563 509.16116,146.264549 511.168553,148.336212 Z" id="Path" fill="#FFFFFF"></path>
                    <path d="M454.074469,174.398258 C452.645783,177.260026 450.257236,179.697991 449.444291,182.77627 C449.12796,184.214927 448.992414,185.685141 449.040586,187.155109 C448.899526,189.370481 449.126717,191.593368 449.713539,193.739424 C450.167274,195.096892 450.905445,196.34878 451.437227,197.679591 C452.178507,199.538851 452.508752,201.527207 452.406755,203.516966 C452.263283,206.27357 451.29308,208.949402 451.217274,211.708513 C451.098042,216.047445 453.177127,220.126395 455.205825,224 C456.239393,221.529336 458.349948,219.624954 460.9733,218.795931 C463.596652,217.966908 466.465326,218.297769 468.812473,219.700071 C469.2771,219.149264 469.497517,218.443597 469.425744,217.73668 C469.575693,212.70284 469.720337,207.668869 469.859676,202.634767 C470.079295,194.84917 470.288474,186.959547 468.433052,179.379782 C467.595326,175.957504 466.291837,172.548447 463.902259,169.894043 C462.644014,168.496361 458.372601,164.814845 456.307153,166.380595 C455.378315,167.084721 455.595396,169.001452 455.448222,169.972036 C455.226071,171.506274 454.762828,172.998839 454.074469,174.398258 L454.074469,174.398258 Z" id="Path" fill="#FFFFFF"></path>
                    <path d="M539.268663,166.445873 C539.830487,168.544145 540.070995,170.716034 539.981926,172.886955 C540.008764,177.311647 539.950357,181.735762 539.806706,186.159298 C539.828676,188.428082 539.539715,190.689119 538.947946,192.878843 C538.4969,194.302821 537.800856,195.638153 537.335035,197.057354 C535.939001,201.310551 536.701755,205.923546 536.821494,210.400109 C536.906004,211.848993 536.782844,213.302554 536.455785,214.716289 C535.719056,217.491401 533.739152,219.733786 532.35727,222.248466 C531.04486,224.636721 530.252962,227.313691 528.685516,229.541563 C527.11807,231.769434 524.404658,233.534771 521.774616,232.850837 C519.781859,232.33263 518.365893,230.561766 517.386473,228.744004 C515.249258,224.747293 514.518315,220.143332 515.311999,215.677601 C516.295278,210.244328 519.474155,205.424302 520.620592,200.023354 C522.194908,192.606665 519.802219,184.953218 519.873419,177.370313 C519.840948,176.181671 520.001537,174.995654 520.34888,173.858849 C520.950187,172.126769 522.241736,170.743535 523.434863,169.354424 C524.925809,167.618421 526.310849,165.793507 527.582404,163.88967 C528.436565,162.610746 529.596674,159.321367 531.111026,159.047863 C534.492012,158.437209 538.429835,163.823403 539.268663,166.445873 Z" id="Path" fill="#FFFFFF"></path>
                    <path d="M436.22088,240.611672 C434.350904,240.148475 432.424148,239.946615 430.497154,240.012013 C426.401412,240.235135 422.600621,242.182648 420.062664,245.358613 C417.524707,248.534578 416.494509,252.632498 417.234413,256.608827 C417.701352,258.738056 418.464586,260.793485 419.50246,262.716803 C421.020396,265.752723 422.840968,268.78168 425.651069,270.727166 C427.344209,271.796886 429.167337,272.652148 431.077397,273.272754 L445.877684,278.767602 C448.054968,279.57596 450.232585,280.384424 452.431422,281.133976 C463.478168,284.897053 474.995222,287.153534 486.662444,287.840695 C490.212699,288.168535 493.792378,287.989772 497.290822,287.309931 C498.136523,287.201205 498.91168,286.788476 499.467504,286.150967 C499.749613,285.666557 499.915941,285.125132 499.953842,284.567855 L500.86457,278.284419 C501.068416,277.409425 501.041769,276.497586 500.787163,275.635604 C500.369962,274.579595 499.324195,273.915282 498.327107,273.350879 C488.596965,267.843234 477.23586,264.804711 469.045839,257.245563 C467.117782,255.466007 465.504309,252.645256 463.161735,251.436445 C460.505296,250.065671 457.376868,249.283324 454.631029,248.020175 C448.628369,245.258774 442.726607,242.0855 436.22088,240.611672 Z" id="Path" fill="#2F2E41"></path>
                    <path d="M451.498993,247.510565 C456.62895,249.200613 478.287637,260.90931 482,264.997355 C481.502387,265.185842 464.619051,255.238071 464.112452,255.078216 C459.468671,253.737337 454.921031,252.052407 450.503652,250.036067 C449.623895,249.608232 444.788215,247.597524 445.00721,246.430474 C445.254327,245.113511 450.588304,247.210534 451.498993,247.510565 Z" id="Path" fill="#000000" opacity="0.1"></path>
                    <path d="M516.878591,291.990342 C517.181374,292.011239 517.481924,291.927991 517.72441,291.756063 C517.939271,291.49633 518.034503,291.166358 517.988786,290.840011 L517.963932,282.502186 C515.416397,281.359828 512.566786,280.993666 509.769747,280.641794 L496.719199,279 C497.01904,279.037716 494.678678,284.290222 495.037528,284.991452 C495.669996,286.227369 500.50351,287.322728 501.867641,287.906274 C506.60984,289.93492 511.537598,292.165143 516.878591,291.990342 Z" id="Path" fill="#A0616A"></path>
                    <path d="M475.975207,281.475447 C473.531835,281.874855 470.804706,282.227915 469.222344,284.179962 C467.215687,286.655417 468.069939,290.345669 469.027175,293.412295 C469.145074,294.211934 469.57323,294.928586 470.214164,295.399087 C470.855098,295.869589 471.654263,296.053898 472.429712,295.910053 C474.65801,296.054866 477.029426,296.168338 478.976387,295.046561 C479.858266,294.44845 480.707267,293.800781 481.519507,293.106517 C482.955229,292.126043 484.533419,291.385534 486.195234,290.912601 C489.250221,289.926376 492.394937,289.261254 495.580937,288.927481 C496.83633,288.868787 498.079082,288.643957 499.278362,288.258568 C500.492583,287.856958 501.455217,286.897764 501.882227,285.664009 C502.333214,284.025579 501.405363,282.355137 500.515497,280.918245 C499.490151,279.036269 498.159096,277.347881 496.57976,275.925927 C494.168459,274.003595 492.975656,275.47929 490.546724,276.709435 C485.949512,279.038045 481.037526,280.644644 475.975207,281.475447 L475.975207,281.475447 Z" id="Path" fill="#A0616A"></path>
                    <path d="M469.649361,283.736442 L454.069621,279.129803 C452.20094,278.478826 450.248329,278.100297 448.271843,278.005858 C446.269825,277.923713 444.329534,278.70869 442.947395,280.159953 C441.739299,281.578403 441.393481,283.517039 441.092336,285.356029 L440.448077,289.289881 C440.018455,291.27306 439.896787,293.310613 440.087354,295.330854 C440.297465,297.378238 441.439357,299.214388 443.182419,300.307689 C445.338351,301.484395 447.980726,300.909656 450.386861,300.417464 C455.247098,299.42363 460.190621,298.893301 465.150992,298.833604 C467.015835,298.811292 468.971762,298.834658 470.619581,297.960984 C472.561474,296.809311 473.808781,294.77183 473.951683,292.517984 C474.258273,289.157566 473.138645,284.768192 469.649361,283.736442 Z" id="Path" fill="#2F2E41"></path>
                    <path d="M522.270172,279.164812 C524.187945,278.808642 525.880482,277.653648 527.718141,276.971903 C530.30472,276.012306 533.107741,276.012321 535.848237,276.022945 C536.855879,275.925387 537.868556,276.1403 538.76303,276.641532 C539.970168,277.493141 540.279556,279.197396 540.484804,280.718657 L541.723208,289.897071 C542.054412,291.609479 542.088693,293.371471 541.824374,295.096889 C541.461052,296.797778 540.366974,298.437518 538.774203,298.876308 C536.839744,299.409222 534.943323,298.099749 533.116815,297.23954 C528.55161,295.089556 523.244832,295.639048 518.484781,294.032105 C517.564358,293.836588 516.767131,293.232469 516.294959,292.372711 C516.132141,291.862922 516.074054,291.322139 516.124593,290.786616 C516.206107,287.836401 515.618905,283.807828 516.457104,280.988265 C517.210906,278.452493 520.129449,279.164812 522.270172,279.164812 Z" id="Path" fill="#2F2E41"></path>
                    <path d="M553.742065,236.787926 C556.797758,236.030885 559.965413,235.817059 563.096927,236.156445 C565.597824,236.428684 568.174566,237.116213 570.000525,238.826446 C572.222983,240.908045 572.937048,244.127282 572.996619,247.152336 C573.094321,253.177502 571.071679,259.049279 567.274185,263.764697 C566.34686,264.957361 565.2441,266.006198 564.002544,266.87636 C562.663209,267.704119 561.235749,268.383754 559.745934,268.902997 L526.703897,281.779274 C518.011268,285.166742 509.287959,288.56402 500.221077,290.797209 C499.720278,291.03607 499.143109,291.065162 498.620305,290.877897 C498.097502,290.690631 497.673305,290.302853 497.4438,289.8024 C494.548794,285.716795 492.120064,281.327357 490.201908,276.714149 C490.017574,276.491651 489.954591,276.194342 490.03314,275.917483 C490.111689,275.640624 490.321907,275.418976 490.596439,275.323558 L513.96732,262.056572 C515.681,261.173443 517.278542,260.085928 518.724146,258.8184 C519.734184,257.851291 520.561235,256.713691 521.166326,255.459206 C521.650768,254.459503 521.695955,252.10037 522.314743,251.361437 C522.920592,250.63796 524.993104,250.580226 525.950287,250.295675 C527.300229,249.887137 528.622232,249.393398 529.908142,248.817503 C535.136038,246.506794 539.791396,243.149451 544.803041,240.443831 C547.613934,238.855993 550.61767,237.627517 553.742065,236.787926 L553.742065,236.787926 Z" id="Path" fill="#2F2E41"></path>
                    <path d="M541.830593,246.565357 C537.781373,249.588301 532.538348,252.367079 528.525144,255.469674 C527.155478,256.528557 504.322846,269.28805 504,270.982665 C507.744097,271.609755 531.59433,255.025085 535.006705,253.370198 C538.419079,251.715311 541.444038,249.381586 544.441508,247.065072 C545.205384,246.47473 548.442715,244.70005 546.24984,244.040489 C545.014535,243.66894 542.742614,245.961024 541.830593,246.565357 Z" id="Path" fill="#000000" opacity="0.1"></path>
                    <path d="M513.650471,148 L478.728956,148 C475.774511,148 473.37946,150.392475 473.379456,153.34374 L473.379456,155.300572 L473,155.300572 L473,159.676804 L473.379456,159.676804 L473.379456,162.740173 L473,162.740173 L473,165.365914 L473.379456,165.365914 L473.379456,197.65626 C473.37946,200.607525 475.774511,203 478.728956,203 L513.6505,203 C516.604946,203 519,200.607525 519,197.65626 L519,153.343711 C519,150.392447 516.604917,148 513.650471,148 L513.650471,148 Z" id="Path" fill="#B8C1D0"></path>
                    <polygon id="Path" fill="#2F2E41" points="519.157932 106.226013 501.473797 97 477.052406 100.774343 472 123 484.577356 122.517608 488.09086 114.352572 488.09086 122.38365 493.894473 122.161336 497.262744 109.16098 499.36827 123 520 122.580312"></polygon>
                    <path d="M458.44212,234.054677 C459.227044,235.441964 460.342239,236.595706 461.680303,237.40479 C463.45932,238.249741 465.513948,238.192474 467.246887,237.249637 C468.954792,236.297323 470.352788,234.83972 471.264088,233.061153 C473.149481,229.598912 473.539941,225.455986 473.304672,221.484663 C473.069402,217.51334 472.254022,213.602836 471.893102,209.641724 C471.630756,206.762267 471.609427,203.865642 471.588295,200.973361 C471.523158,200.365153 471.645843,199.75117 471.938588,199.220298 C472.442683,198.699027 473.094776,198.360394 473.798344,198.254523 C477.603478,197.078819 480.12922,193.36985 481.939994,189.69636 C483.149104,187.243452 484.200526,184.562121 483.967362,181.816402 C483.734198,179.070683 481.836368,176.304623 479.199511,176.024526 C477.025607,175.793599 475.018346,177.229482 473.450218,178.812117 C469.49439,182.82952 466.952062,188.113196 466.231722,193.814194 C465.887499,196.605967 465.986079,199.473718 465.255909,202.183988 C463.696814,207.970923 458.818704,211.518929 456.387745,216.726132 C453.709122,222.463911 455.187541,228.977907 458.44212,234.054677 Z" id="Path" fill="#A0616A"></path>
                    <path d="M533.205445,211.573508 C532.010314,214.252839 529.742156,216.352979 526.916227,217.39684 C525.177591,218.069809 523.259742,218.182994 521.448877,217.719505 C519.62862,217.232903 518.147753,215.956517 517.443709,214.267378 C517.166652,213.427989 517.014753,212.554928 516.992565,211.674363 C516.732407,207.818096 516.832937,203.844328 518.286541,200.242715 C518.847197,198.853575 519.603143,197.536138 520.045613,196.107922 C520.480455,194.458434 520.702918,192.763636 520.707982,191.061764 L521.185831,180.539951 C521.26486,179.776086 521.21003,179.004852 521.023636,178.258509 C520.547008,176.736059 519.070412,175.746674 517.715572,174.838757 C514.443552,172.646074 511.210137,170.087447 509.624628,166.563956 C509.079914,165.503104 508.884832,164.307121 509.065544,163.136394 C509.512602,161.047032 511.700724,159.694436 513.863444,159.238743 C516.722889,158.63625 519.713645,159.185327 522.142877,160.758777 C524.572109,162.332227 526.229027,164.793517 526.729791,167.572468 C526.943762,168.759877 526.940813,169.972774 527.066057,171.171896 C527.331715,173.715514 528.169698,176.167431 528.693912,178.673503 C529.98521,184.846481 529.316098,191.227557 530.59304,197.399489 C531.660749,202.559901 535.686686,205.927127 533.205445,211.573508 Z" id="Path" fill="#A0616A"></path>
                    <circle id="Oval" fill="#3366FF" cx="496" cy="168" r="4"></circle>
                    <circle id="Oval" fill="#2F2E41" cx="12.5" cy="313.5" r="12.5"></circle>
                    <polygon id="Path" fill="#FBBEBE" points="63.4890213 351.59275 57.0100362 345 44 349.23041 45.2495797 365 72 363.699369 63.7821591 352.010117"></polygon>
                    <circle id="Oval" fill="#FBBEBE" cx="46" cy="332" r="21"></circle>
                    <path d="M179.844082,379 C179.844082,379 206.20641,423.643152 212.480375,430.345251 C215.46403,433.64363 218.642773,436.765482 222,439.6945 C222,439.6945 219.049978,449.335068 214.352494,448.991005 C211.675044,448.832116 209.049281,448.194454 206.603514,447.109179 C206.603514,447.109179 204.506864,441.753481 200.849712,439.404756 C197.192559,437.05603 167.31369,408.090213 168.012048,398.832311 C168.710407,389.57441 179.844082,379 179.844082,379 Z" id="Path" fill="#2F2E41"></path>
                    <path d="M87,442.723645 C87,442.723645 114.697962,464.269504 152.340379,444.024134 L155.584333,441.631555 C155.584333,441.631555 150.109847,453.974317 149.601911,457.320629 C149.012961,461.200676 134.760039,483.929383 132.434156,485.018354 C130.108274,486.107325 129.595689,487.111863 129.595689,487.111863 L139.466108,498 L143.115548,495.308345 C143.115548,495.308345 157.345633,475.102418 161.507651,471.406233 C165.669668,467.710047 185.499534,429.591367 185.499534,429.591367 C185.499534,429.591367 193.081092,415.228788 174.159892,414.148487 C155.238691,413.068187 146.531993,418.236818 146.531993,418.236818 L112.951608,423.58301 L87,442.723645 Z" id="Path" fill="#2F2E41"></path>
                    <path d="M222.215225,438 L236.412833,447.984627 C236.412833,447.984627 254.525918,453.752699 243.368412,457.591313 C232.210906,461.429927 202.80865,462.818388 202.14158,457.522349 C201.47451,452.22631 203.301318,443.890462 204.768137,444.346293 C206.234956,444.802124 216.415842,447.48907 222.215225,438 Z" id="Path" fill="#2F2E41"></path>
                    <path d="M144.532875,491.705312 L147.123586,505.650451 C147.123586,505.650451 154.490279,519.460335 145.645328,515.175428 C136.800376,510.89052 118.577443,494.614384 121.268362,491.20223 C123.959281,487.790077 129.898487,484.089452 130.50164,485.201367 C131.104793,486.313283 135.568841,493.758355 144.532875,491.705312 Z" id="Path" fill="#2F2E41"></path>
                    <path d="M119,427.554252 C119,427.554252 100.067963,449.495239 88.5740019,444.165392 C77.0800404,438.835544 30.0560142,377.103021 35.4253582,365.693608 C40.7947021,354.284196 42.5950351,356.71258 42.5950351,356.71258 L66.8750281,358.941349 L59.8890305,347.822704 C59.8890305,347.822704 63.1508569,345.439915 66.2590837,348.78463 C69.3673104,352.129345 81.84615,360.483253 86.1933972,372.281686 C90.5406445,384.080119 103.303699,383.491492 103.303699,383.491492 L119,427.554252 Z" id="Path" fill="#FFFFFF"></path>
                    <polygon id="Path" fill="#3F3D56" points="194 383.436985 161.296328 418 132 366.502387 159.850986 333"></polygon>
                    <polygon id="Path" fill="#FFFFFF" points="192 382.851643 162.621719 413 136 366.541899 160.414445 336"></polygon>
                    <polygon id="Path" fill="#B3B3B3" points="159.438097 416 161 417.33046 159.998399 419.345469 115.421466 433 115 431.428234 117.027995 429.269608"></polygon>
                    <polygon id="Path" fill="#B8C1D0" points="163 417.245875 115.782939 432 87 377.644716 133.383823 366"></polygon>
                    <polygon id="Path" fill="#3F3D56" points="158 410.514158 155.933542 412 133 373.082057 135.370218 372"></polygon>
                    <polygon id="Path" fill="#3F3D56" points="154 412.003502 133.861351 418 111 377.579807 130.923141 373"></polygon>
                    <path d="M98.5313953,383.5 L102.65647,382.421216 C102.65647,382.421216 125.661024,380.016293 125.996866,386.69934 C126.332707,393.382387 99.5687404,390.281706 99.5687404,390.281706 L96,385.798291 L98.5313953,383.5 Z" id="Path" fill="#FBBEBE"></path>
                    <path d="M117.323422,415 L123.270204,412.610006 C123.270204,412.610006 141.221077,404.728514 136.07158,399.593551 C130.922082,394.458589 115.040441,403.376316 115.040441,403.376316 L112,406.199259 L117.323422,415 Z" id="Path" fill="#FBBEBE"></path>
                    <path d="M112.473348,404.041452 C112.473348,404.041452 121.8101,413.326018 119.685545,415.506799 C117.560989,417.68758 82.7225041,446.372414 74.0863652,437.194192 C65.4502263,428.015969 23.3737252,381.934862 39.746357,377.983034 C56.1189887,374.031206 60.4448934,383.270415 60.4448934,383.270415 L82.0587465,420.166255 L112.473348,404.041452 Z" id="Path" fill="#FFFFFF"></path>
                    <polygon id="Path" fill="#FFFFFF" points="84.1015382 376 99 381.113329 98.756694 392 83 390.278998"></polygon>
                    <polygon id="Path" fill="#000000" opacity="0.2" points="98 410.339822 81.6641929 420 63 391 81.0162694 414.888756"></polygon>
                    <circle id="Oval" fill="#2F2E41" cx="37" cy="325" r="25"></circle>
                    <polygon id="Path" fill="#3366FF" points="175.088278 386 158 360.240307 165.243799 351 183 377.502308"></polygon>
                    <polygon id="Path" fill="#E6E6E6" points="174.803332 396 148 356.614433 149.321985 355 176 394.478553"></polygon>
                    <polygon id="Path" fill="#E6E6E6" points="172.803332 400 146 360.614433 147.321985 359 174 398.479285"></polygon>
                    <polygon id="Path" fill="#E6E6E6" points="168.803332 403 142 363.614433 143.321985 362 170 401.479285"></polygon>
                    <path d="M47,308 L54.9062748,308 C63.2423091,308 70,314.715729 70,323 L70,323 L47,323 L47,308 Z" id="Path" fill="#2F2E41"></path>
                    <path d="M157.826277,298.101793 L156.425768,298 C156.371457,298.711047 156.332578,299.426364 156.286368,300.139757 L150,299.934247 L156.594148,312 L164,300.3919 L157.69056,300.185638 C157.735698,299.491037 157.773383,298.794504 157.826277,298.101793 Z" id="Path" fill="#222B45"></path>
                    <path d="M195,197.079519 L196.060713,198 C197.651748,195.631512 199.31348,193.267095 201,190.972277 L199.97579,190 C198.276872,192.311806 196.602763,194.693623 195,197.079519 Z" id="Path" fill="#3F3D56"></path>
                    <path d="M207,184.055029 L208.069576,185 C209.991554,182.963975 211.987106,180.941976 214,178.98943 L212.974271,178 C210.946181,179.966557 208.936129,182.003953 207,184.055029 Z" id="Path" fill="#3F3D56"></path>
                    <path d="M217,172.054756 L217.92302,173 C219.903362,171.290856 221.948014,169.6027 224,167.982198 L223.122288,167 C221.054979,168.632382 218.995002,170.333384 217,172.054756 Z" id="Path" fill="#3F3D56"></path>
                    <path d="M186,211.225177 L187.024382,212 C188.298216,209.588064 189.635935,207.175422 191,204.828649 L190.005211,204 C188.630785,206.364477 187.283289,208.795187 186,211.225177 Z" id="Path" fill="#3F3D56"></path>
                    <path d="M231,160.899355 L231.904317,162 C234.224949,160.334799 236.612296,158.698747 239,157.137244 L238.148622,156 C235.742781,157.573369 233.337672,159.221599 231,160.899355 Z" id="Path" fill="#3F3D56"></path>
                    <path d="M178,226.360087 L179.194982,227 C180.405685,224.546984 181.685947,222.089178 183,219.695292 L181.833241,219 C180.509331,221.412001 179.219556,223.88826 178,226.360087 Z" id="Path" fill="#3F3D56"></path>
                    <path d="M164,265.331152 L162.336411,265 C161.487417,267.549047 160.701326,270.148347 160,272.726253 L161.681216,273 C162.377517,270.441556 163.15772,267.861057 164,265.331152 Z" id="Path" fill="#3F3D56"></path>
                    <path d="M245,150.927641 L245.766361,152 C248.133441,150.659548 250.567086,149.34796 253,148.101529 L252.287338,147 C249.836283,148.256052 247.384497,149.577255 245,150.927641 Z" id="Path" fill="#3F3D56"></path>
                    <path d="M160,282.215047 L158.377793,282 C157.850029,284.58959 157.386485,287.228385 157,289.843257 L158.632631,290 C159.015917,287.405233 159.476253,284.785849 160,282.215047 Z" id="Path" fill="#3F3D56"></path>
                    <path d="M170,241.486765 L171.410412,242 C172.539405,239.512032 173.747218,237.011817 175,234.569146 L173.616363,234 C172.353941,236.461301 171.137175,238.980188 170,241.486765 Z" id="Path" fill="#3F3D56"></path>
                    <path d="M164,256.609184 L165.357116,257 C166.175269,254.474403 167.064427,251.933415 168,249.44767 L166.66297,249 C165.720472,251.504036 164.824388,254.064288 164,256.609184 Z" id="Path" fill="#3F3D56"></path>
                    <path d="M340.04577,124 C342.671029,123.874566 345.344013,123.824477 347.98823,123.858766 L348,122.010524 C345.337476,121.976226 342.643566,122.026315 340,122.152658 L340.04577,124 Z" id="Path" fill="#3F3D56"></path>
                    <path d="M259,143.736627 L259.637316,145 C262.057038,143.712301 264.533934,142.464557 267,141.291176 L266.41748,140 C263.933154,141.182071 261.437649,142.439196 259,143.736627 Z" id="Path" fill="#3F3D56"></path>
                    <path d="M373,125.030036 C375.585755,125.596101 378.195464,126.258768 380.756634,127 L381,124.984979 C378.420063,124.238235 375.790936,123.570076 373.185111,123 L373,125.030036 Z" id="Path" fill="#3F3D56"></path>
                    <path d="M390,128.588997 C392.547577,129.318958 395.118552,130.130188 397.640148,131 L398,129.428524 C395.459564,128.552342 392.869762,127.735528 390.302691,127 L390,128.588997 Z" id="Path" fill="#3F3D56"></path>
                    <path d="M406,133.295476 C408.513101,134.135709 411.043947,135.045546 413.521565,136 L414,134.72517 C411.503327,133.763386 408.954075,132.846556 406.421912,132 L406,133.295476 Z" id="Path" fill="#3F3D56"></path>
                    <path d="M356,124.081418 C358.620748,124.296684 361.268782,124.606099 363.87133,125 L364,122.925682 C361.37795,122.528226 358.709773,122.21674 356.070184,122 L356,124.081418 Z" id="Path" fill="#3F3D56"></path>
                    <path d="M323,123.12828 L323.162236,125 C325.752108,124.547952 328.389359,124.170935 331,123.880006 L330.89617,122 C328.265413,122.293237 325.608701,122.673016 323,123.12828 Z" id="Path" fill="#3F3D56"></path>
                    <path d="M290,130.527386 L290.394789,132 C292.901955,131.102958 295.460586,130.258988 298,129.491434 L297.66254,128 C295.10423,128.772821 292.526054,129.623189 290,130.527386 Z" id="Path" fill="#3F3D56"></path>
                    <path d="M274,135.490041 L274.514794,137 C276.980178,135.782471 279.498528,134.617132 282,133.535452 L281.541812,132 C279.021121,133.089243 276.483928,134.263743 274,135.490041 Z" id="Path" fill="#3F3D56"></path>
                    <path d="M307,127.136958 L307.27785,129 C309.82589,128.215437 312.423794,127.501564 315,126.878848 L314.779812,125 C312.184463,125.627828 309.566811,126.346814 307,127.136958 Z" id="Path" fill="#3F3D56"></path>
                    <path d="M435,144.047989 L427.134072,133 L424.36821,138.410825 C423.698776,138.126717 423.032975,137.836448 422.364175,137.561247 L421.804703,138.789281 C422.457764,139.057883 423.103486,139.339505 423.752762,139.614774 L421,145 L435,144.047989 Z" id="Path" fill="#222B45"></path>
                </g>
            </g>
        </g>
    </g>
</svg>