<?xml version="1.0" encoding="UTF-8"?>
<svg width="673px" height="393px" viewBox="0 0 673 393" version="1.1" xmlns="http://www.w3.org/2000/svg" xmlns:xlink="http://www.w3.org/1999/xlink">
    <title>AC8B23FB-24D3-4BCC-824F-4ECB74C55C17</title>
    <g id="Design" stroke="none" stroke-width="1" fill="none" fill-rule="evenodd">
        <g id="Dark/Start/" transform="translate(-755.000000, -1968.000000)" fill-rule="nonzero">
            <g id="3" transform="translate(12.000000, 1961.000000)">
                <g id="undraw_portfolio_website_lidw" transform="translate(743.000000, 7.000000)">
                    <path d="M599,147 C558.130929,147 525,114.092929 525,73.5 C525,32.9070709 558.130929,0 599,0 C639.869071,0 673,32.9070709 673,73.5 C672.953775,114.073896 639.849909,146.954087 599,147 L599,147 Z M599,1.1484375 C558.769508,1.1484375 526.15625,33.5413354 526.15625,73.5 C526.15625,113.458665 558.769508,145.851563 599,145.851563 C639.230492,145.851563 671.84375,113.458665 671.84375,73.5 C671.798254,33.5600681 639.211632,1.19362598 599,1.1484375 Z" id="Shape" fill="#222B45"></path>
                    <circle id="Oval" fill="#EDF1F7" cx="599" cy="74" r="37"></circle>
                    <rect id="Rectangle" fill="#222B45" x="37" y="74" width="565" height="283"></rect>
                    <rect id="Rectangle" fill="#000000" opacity="0.1" x="196" y="155" width="211" height="145"></rect>
                    <circle id="Oval" fill="#3366FF" cx="650" cy="22" r="15"></circle>
                    <circle id="Oval" fill="#3366FF" cx="55.5" cy="86.5" r="6.5"></circle>
                    <circle id="Oval" fill="#3366FF" cx="75.5" cy="86.5" r="6.5"></circle>
                    <circle id="Oval" fill="#3366FF" cx="96.5" cy="86.5" r="6.5"></circle>
                    <rect id="Rectangle" fill="#3366FF" x="102" y="180" width="13" height="13"></rect>
                    <rect id="Rectangle" fill="#FFFFFF" x="512" y="297" width="13" height="13"></rect>
                    <polygon id="Rectangle" fill="#3366FF" transform="translate(476.776258, 212.202375) rotate(-38.976870) translate(-476.776258, -212.202375) " points="470.050706 205.478888 483.492134 205.488564 483.50181 218.925863 470.060382 218.916187"></polygon>
                    <polygon id="Path" fill="#222B45" points="430 386 8 386 8 158 9.3438721 158 9.3438721 384.650966 430 384.650966"></polygon>
                    <path d="M438.500124,393 C435.062245,393 431.962881,390.929071 430.647262,387.752885 C429.331643,384.576698 430.058858,380.920749 432.489806,378.489802 C434.920755,376.058855 438.576704,375.331644 441.75289,376.647265 C444.929075,377.962886 447,381.06225 447,384.50013 C446.994577,389.192233 443.192227,392.99458 438.500124,393 Z M438.500124,377.30793 C434.527982,377.30793 431.307924,380.527987 431.307924,384.50013 C431.307924,388.472272 434.527982,391.69233 438.500124,391.69233 C442.472267,391.69233 445.692324,388.472272 445.692324,384.50013 C445.687839,380.529847 442.470407,377.312415 438.500124,377.30793 L438.500124,377.30793 Z" id="Shape" fill="#222B45"></path>
                    <path d="M8.5,159 C3.80557963,159 0,155.19442 0,150.5 C0,145.80558 3.80557963,142 8.5,142 C13.1944204,142 17,145.80558 17,150.5 C16.9948049,155.192267 13.1922668,158.994805 8.5,159 L8.5,159 Z M8.5,143.307695 C4.52779957,143.307695 1.30769489,146.5278 1.30769489,150.5 C1.30769489,154.4722 4.52779957,157.692305 8.5,157.692305 C12.4722004,157.692305 15.6923051,154.4722 15.6923051,150.5 C15.6878198,146.529659 12.4703411,143.31218 8.5,143.307695 Z" id="Shape" fill="#222B45"></path>
                    <path d="M136,340.216886 L129.841385,357 L116,357 L116,339.881203 C117.020678,318.405536 129.399996,308.308786 129.786204,308 C120.48276,316.733901 121.517243,346.930107 121.517243,346.930107 C127.724142,320.74845 133.241379,320.077124 133.241379,320.077124 C129.903433,324.957625 128.179294,347.158333 128.07587,348.541257 C128.489645,343.87559 136,340.216886 136,340.216886 Z" id="Path" fill="#F2F2F2"></path>
                    <path d="M553,342.422626 L553,357 L542.936964,357 L538,342.685842 C538,342.685842 543.628262,345.601334 543.941293,349.319878 C543.863037,348.172578 542.571745,330.517808 540.067379,326.630509 C540.067379,326.630509 544.208708,327.163648 548.865198,348.037593 C548.865198,348.037593 549.634797,323.964736 542.663055,317 C542.956506,317.249719 552.236967,325.294242 553,342.422626 Z" id="Path" fill="#F2F2F2"></path>
                    <path d="M371,301 L354.553016,301 L354.443023,299.656577 L353.244668,284.682883 L353.244668,284.677117 L352,269.10955 L359.58958,237 L366.038696,243.423063 L366.038696,274.021982 C366.038696,274.021982 369.830591,279.68973 369.072212,281.20036 C368.313833,282.710991 367.555454,282.710991 368.313833,283.841081 C369.072212,284.976937 369.830591,285.732252 369.072212,286.487568 C368.313832,287.495722 368.313832,288.881215 369.072212,289.889369 C369.830591,290.644685 371.347349,291.774775 370.206886,292.910631 C369.072212,294.040721 367.555454,293.285405 369.072212,297.442523 C369.350361,298.210926 369.699193,298.952094 370.11426,299.656577 C370.384695,300.120132 370.680383,300.56861 371,301 L371,301 Z" id="Path" fill="#EDF1F7"></path>
                    <polygon id="Path" fill="#FFB9B9" points="321.228458 198 319 220.608596 341.657029 224 343.328231 211.000288 345 198"></polygon>
                    <polygon id="Path" fill="#000000" opacity="0.1" points="321.228458 198 319 220.608596 341.657029 224 343.328231 211.000288 345 198"></polygon>
                    <circle id="Oval" fill="#FFB9B9" cx="334" cy="187" r="18"></circle>
                    <path d="M287.498063,301.220998 C287.434325,301.089255 287.364791,300.951784 287.295258,300.802857 C287.161986,300.522187 287.017126,300.218605 286.860676,299.886383 C285.852446,297.663936 284.618233,294.502103 285.330948,293.55699 C286.47245,292.056265 286.849087,290.555539 286.090018,289.805177 C285.330948,289.054814 283.053738,290.555539 285.330948,288.676769 C287.608157,286.803727 288.367227,287.926407 287.608157,285.675319 C286.849087,283.424231 285.330948,284.552639 286.849087,283.424231 C288.367227,282.301552 289.508729,282.673869 288.749659,281.551189 C287.990589,280.422781 286.47245,280.422781 287.990589,279.672419 C289.508729,278.922056 290.650231,279.672419 290.267799,277.793648 C289.885367,275.920606 289.508729,276.670969 290.267799,275.920606 C290.46481,275.725856 291.154346,273.835629 292.07566,271.137761 C294.65418,263.513849 299,249.451711 299,248.896099 C299,248.145737 292.927441,224.506453 292.927441,224.506453 L290.267799,223 C290.267799,223 278.499319,230.881671 274.703969,248.523782 C270.902826,266.160165 268.248978,270.668068 268.248978,270.668068 C268.248978,270.668068 264.453629,271.418431 267.107476,274.041836 C269.767118,276.670969 269.767118,276.292923 267.489908,277.793648 C265.212699,279.294374 263.694559,276.292923 265.212699,279.294374 C266.730838,282.301552 268.625616,281.551189 267.107476,283.424231 C265.589336,285.303002 262.935489,285.303002 264.453629,286.803727 C265.971768,288.304452 262.935489,291.683947 264.830266,293.184672 C266.730838,294.685397 267.489908,295.057715 267.489908,297.686847 C267.490725,298.423573 267.55079,299.159069 267.669535,299.886383 C267.73482,300.336412 267.827702,300.782105 267.947668,301.220998 C268.034584,301.570403 268.121501,301.833889 268.179445,302 L287.498063,301.220998 Z" id="Path" fill="#EDF1F7"></path>
                    <polygon id="Path" fill="#3F3D56" points="288.367635 300.812227 289.918672 300.812227 290 300 288.164315 300.174672 281.489627 300.812227 269 302"></polygon>
                    <path d="M295.291722,285.014459 L291.892786,273.331612 L291.800455,270.789111 L290,222.447088 L312.309483,214.537726 L316.089284,211.517787 C316.089284,211.517787 316.845244,202.849126 317.98207,202.095579 C318.391789,201.825223 319.049647,202.141597 319.921021,202.877887 C321.450254,204.172147 323.643116,206.754913 326.297632,209.636797 C330.458299,214.158076 339.154727,213.40453 341.797731,211.897437 C342.137781,211.699935 342.490563,211.525068 342.853767,211.373981 C344.752324,210.591673 345.577532,211.14389 345.577532,211.14389 C347.470318,212.650983 342.934557,217.551912 342.934557,217.551912 C342.934557,217.551912 344.446477,220.939995 354.27396,224.333831 C364.107214,227.727666 366,243.557896 366,243.557896 C366,243.557896 354.27396,275.212602 354.654826,277.473242 C354.977984,279.411755 353.639185,283.564889 353.246778,284.715342 L353.246778,284.721094 C353.1833,284.905166 353.142905,285.014459 353.142905,285.014459 L354.002738,299.659723 L354.083528,301 L296.890202,301 C296.72019,300.533844 296.505691,300.085028 296.249656,299.659723 C296.186178,299.556182 296.11693,299.446889 296.047682,299.337596 C292.648746,294.057018 295.291722,285.014459 295.291722,285.014459 Z" id="Path" fill="#EDF1F7"></path>
                    <path d="M315.331438,189.677767 C315.331438,189.677767 313.43867,186.893845 314.166657,183.895771 C314.60164,182.193608 314.77342,180.437036 314.676249,178.684838 C314.676249,178.684838 316.205021,173.830815 317.733787,171.118275 C319.262553,168.405735 318.534572,167.263603 323.339259,166.407017 C328.143945,165.550431 326.178402,159.411518 338.84536,166.050106 C339.719262,167.246552 341.241542,167.809825 342.703682,167.477761 C345.324437,166.97808 346.270819,170.547212 346.270819,170.547212 C346.270819,170.547212 348.017985,169.547856 348.673168,170.975511 C349.328351,172.403166 354,170.118663 354,179.75532 C354,189.391977 348.683837,198 348.683837,198 C348.683837,198 349.07356,181.789982 340.410528,180.148181 C331.747495,178.506379 322.429274,173.723728 320.172521,179.862652 C318.954333,183.308129 317.329616,186.602183 315.331438,189.677767 Z" id="Path" fill="#2F2E41"></path>
                    <ellipse id="Oval" fill="#FFB9B9" cx="347.5" cy="191" rx="1.5" ry="2"></ellipse>
                    <path d="M195,145 L195,301 L442,301 L442,145 L195,145 Z M440.661138,299.658696 L196.344609,299.658696 L196.344609,146.347061 L440.661138,146.347061 L440.661138,299.658696 Z" id="Shape" fill="#FFFFFF"></path>
                </g>
            </g>
        </g>
    </g>
</svg>