<?xml version="1.0" encoding="UTF-8"?>
<svg width="294px" height="180px" viewBox="0 0 294 180" version="1.1" xmlns="http://www.w3.org/2000/svg" xmlns:xlink="http://www.w3.org/1999/xlink">
    <title>D04DAF7D-A7ED-42D2-9AE0-EC9DD4B36338</title>
    <defs>
        <path d="M283.382,180 L10,180 C4.477,180 0,175.522 0,170 L0,10 C0,4.477 4.477,0 10,0 L283.382,0 C288.905,0 293.382,4.477 293.382,10 L293.382,170 C293.382,175.522 288.905,180 283.382,180" id="path-1"></path>
    </defs>
    <g id="Design" stroke="none" stroke-width="1" fill="none" fill-rule="evenodd">
        <g id="Create-project/Under-Construction" transform="translate(-573.000000, -360.000000)">
            <g id="Under-Construction" transform="translate(573.000000, 360.000000)">
                <mask id="mask-2" fill="white">
                    <use xlink:href="#path-1"></use>
                </mask>
                <use id="Fill-121" fill="#FDD305" xlink:href="#path-1"></use>
                <path d="M275.813,171 L275.813,169.5 L17.569,169.5 C15.769,169.499 14.154,168.775 12.973,167.596 C11.794,166.415 11.07,164.799 11.069,163 L11.069,17 C11.07,15.2 11.794,13.585 12.973,12.404 C14.154,11.225 15.769,10.501 17.569,10.5 L275.813,10.5 C277.613,10.501 279.228,11.225 280.41,12.404 C281.588,13.585 282.313,15.2 282.313,17 L282.313,163 C282.313,164.799 281.588,166.415 280.41,167.596 C279.228,168.775 277.613,169.499 275.813,169.5 L275.813,172.5 C281.061,172.5 285.314,168.247 285.314,163 L285.314,17 C285.314,11.752 281.061,7.5 275.813,7.5 L17.569,7.5 C12.321,7.5 8.069,11.753 8.069,17 L8.069,163 C8.069,168.247 12.321,172.5 17.569,172.5 L275.813,172.5 L275.813,171" id="Fill-122" fill="#151A30" mask="url(#mask-2)"></path>
                <g id="Group-3" mask="url(#mask-2)" fill="#151A30">
                    <g transform="translate(117.471000, 20.456644)" id="Combined-Shape">
                        <path d="M26.416,3.81835622 C24.338,3.66635622 22.147,3.66635622 18.627,7.18535622 C18.1580102,7.65457386 17.3699496,8.44275852 16.4325974,9.3801664 L27.034,19.983 L36.0182888,10.9982432 C35.4887379,9.00148061 35.9677194,6.79271621 37.4552331,5.17946712 L37.633,4.99435622 C39.14,3.48735622 41.226,2.91635622 43.174,3.27735622 L43.174,3.27735622 L38.967,7.48435622 L43.947,12.4643562 L48.154,8.25835622 C48.515,10.2063562 47.944,12.2923562 46.438,13.7983562 C44.810491,15.425196 42.5067486,15.9633449 40.4321514,15.4128027 L31.448,24.397 L47.871,40.8193562 L43.457,45.2343562 L27.033,28.811 L18.0507112,37.7964693 C18.5802621,39.7932318 18.1012806,42.0019962 16.6137669,43.6152453 L16.436,43.8003562 C14.929,45.3073562 12.843,45.8783562 10.895,45.5173562 L10.895,45.5173562 L15.102,41.3103562 L10.121,36.3303562 L5.914,40.5363562 C5.554,38.5883562 6.125,36.5023562 7.631,34.9963562 C7.65453548,34.9728304 7.67821238,34.9495323 7.70202796,34.9264618 L7.7,34.9283562 L7.73087243,34.8986958 C7.78416912,34.8477152 7.83814842,34.7978642 7.89278006,34.7491428 L7.7,34.9283562 C7.78104843,34.8496782 7.86371763,34.7736432 7.94789848,34.7002521 C8.00433617,34.651405 8.061322,34.6035365 8.11894709,34.5568494 C8.13923948,34.5399698 8.1599818,34.5233694 8.18080535,34.5069211 C8.32595477,34.3928195 8.47459986,34.2859156 8.62664236,34.1863496 C8.66169515,34.1627899 8.6972179,34.1400373 8.73291891,34.1176817 C8.77172224,34.0939964 8.81071533,34.0701817 8.84990958,34.0468349 C8.89239756,34.0209102 8.93505498,33.9961901 8.97793899,33.9720188 C9.01181989,33.9535349 9.0458419,33.9347787 9.07999959,33.9163646 C9.12784137,33.8899708 9.17588452,33.86489 9.2241805,33.8404796 C9.25196329,33.8270231 9.27993285,33.8131472 9.30798364,33.7994944 C9.35831368,33.7744287 9.40903128,33.7506029 9.45999735,33.7275 C9.61294566,33.6586929 9.76764365,33.5960146 9.92414136,33.5397997 C9.96874949,33.5233964 10.0133775,33.5079597 10.0581418,33.493046 C10.1036869,33.4781972 10.14916,33.4636115 10.1947625,33.4495613 C10.2337482,33.4372838 10.2734001,33.4255156 10.3131433,33.414151 C10.3609713,33.4006767 10.408315,33.387725 10.4557762,33.3753419 C10.4924137,33.3656547 10.5297648,33.3562967 10.5671833,33.3472903 C10.6256379,33.3332723 10.6835744,33.3201745 10.7416522,33.3079131 C10.7632348,33.3033979 10.7856075,33.298815 10.808,33.2943562 C11.7414679,33.1075611 12.710856,33.1365049 13.6348528,33.3813804 L22.619,24.397 L12.0090125,13.8036757 C10.0095671,15.8029894 8.367,17.4453562 8.367,17.4453562 L9.463,18.5413562 L6.475,21.5293562 L1.09423581e-12,15.0543562 L2.988,12.0663562 L4.084,13.1623562 L4.10800259,13.1383536 C4.31419736,12.9321589 5.82550089,11.4208553 7.73410431,9.51225191 L6.198,7.97535622 L10.612,3.56035622 L12.1532923,5.09306393 C13.4832324,3.76312385 14.6996402,2.54671606 15.539,1.70735622 C18.66,-1.41464378 22.612,0.0133562158 26.416,3.81835622 Z"></path>
                    </g>
                </g>
                <text id="CONSTRUCTION" mask="url(#mask-2)" font-family="Montserrat-Bold, Montserrat" font-size="20" font-weight="bold" fill="#151A30">
                    <tspan x="62" y="134">CONSTRUCTION</tspan>
                </text>
                <path d="M25.98,31 C22.206,31 19.147,27.94 19.147,24.167 C19.147,20.393 22.206,17.334 25.98,17.334 C29.754,17.334 32.813,20.393 32.813,24.167 C32.813,27.94 29.754,31 25.98,31" id="Fill-140" fill="#000000" opacity="0.12" mask="url(#mask-2)"></path>
                <path d="M31.813,23.5 C31.813,27.274 28.754,30.333 24.98,30.333 C21.206,30.333 18.147,27.274 18.147,23.5 C18.147,19.726 21.206,16.667 24.98,16.667 C28.754,16.667 31.813,19.726 31.813,23.5" id="Fill-141" fill="#B8C1D0" mask="url(#mask-2)"></path>
                <polyline id="Fill-142" fill="#8F9BB3" mask="url(#mask-2)" points="29.458 18.314 19.794 27.978 20.502 28.686 30.166 19.022"></polyline>
                <path d="M268.647,31 C264.873,31 261.813,27.94 261.813,24.167 C261.813,20.393 264.873,17.334 268.647,17.334 C272.42,17.334 275.48,20.393 275.48,24.167 C275.48,27.94 272.42,31 268.647,31" id="Fill-143" fill="#000000" opacity="0.12" mask="url(#mask-2)"></path>
                <path d="M274.48,23.5 C274.48,27.274 271.42,30.333 267.647,30.333 C263.873,30.333 260.813,27.274 260.813,23.5 C260.813,19.726 263.873,16.667 267.647,16.667 C271.42,16.667 274.48,19.726 274.48,23.5" id="Fill-144" fill="#B8C1D0" mask="url(#mask-2)"></path>
                <polyline id="Fill-145" fill="#8F9BB3" mask="url(#mask-2)" points="272.125 18.314 262.461 27.978 263.169 28.686 272.832 19.022"></polyline>
                <path d="M25.98,163.833 C22.206,163.833 19.147,160.773 19.147,157 C19.147,153.227 22.206,150.167 25.98,150.167 C29.754,150.167 32.813,153.227 32.813,157 C32.813,160.773 29.754,163.833 25.98,163.833" id="Fill-146" fill="#000000" opacity="0.12" mask="url(#mask-2)"></path>
                <path d="M31.813,156.333 C31.813,160.107 28.754,163.167 24.98,163.167 C21.206,163.167 18.147,160.107 18.147,156.333 C18.147,152.56 21.206,149.5 24.98,149.5 C28.754,149.5 31.813,152.56 31.813,156.333" id="Fill-147" fill="#B8C1D0" mask="url(#mask-2)"></path>
                <polyline id="Fill-148" fill="#8F9BB3" mask="url(#mask-2)" points="29.458 151.147 19.794 160.811 20.502 161.519 30.166 151.855"></polyline>
                <path d="M268.647,163.833 C264.873,163.833 261.813,160.773 261.813,157 C261.813,153.227 264.873,150.167 268.647,150.167 C272.42,150.167 275.48,153.227 275.48,157 C275.48,160.773 272.42,163.833 268.647,163.833" id="Fill-149" fill="#000000" opacity="0.12" mask="url(#mask-2)"></path>
                <path d="M274.48,156.333 C274.48,160.107 271.42,163.167 267.647,163.167 C263.873,163.167 260.813,160.107 260.813,156.333 C260.813,152.56 263.873,149.5 267.647,149.5 C271.42,149.5 274.48,152.56 274.48,156.333" id="Fill-150" fill="#B8C1D0" mask="url(#mask-2)"></path>
                <polyline id="Fill-151" fill="#8F9BB3" mask="url(#mask-2)" points="272.125 151.147 262.461 160.811 263.169 161.519 272.832 151.854"></polyline>
                <path d="M115.753,144.5 L102.607,159.667 L91.688,159.667 L104.834,144.5 L115.753,144.5 Z M136.075,144.5 L122.93,159.667 L112.01,159.667 L125.156,144.5 L136.075,144.5 Z M156.397,144.5 L143.251,159.667 L132.333,159.667 L145.478,144.5 L156.397,144.5 Z M176.719,144.5 L163.574,159.667 L152.654,159.667 L165.8,144.5 L176.719,144.5 Z M197.041,144.5 L183.896,159.667 L172.977,159.667 L186.122,144.5 L197.041,144.5 Z" id="Combined-Shape" fill="#151A30" mask="url(#mask-2)"></path>
                <text id="UNDER" mask="url(#mask-2)" font-family="Montserrat-Bold, Montserrat" font-size="43" font-weight="bold" fill="#151A30">
                    <tspan x="64" y="104">UNDER</tspan>
                </text>
                <polygon id="Rectangle" fill="#FFFFFF" opacity="0.18" mask="url(#mask-2)" points="1.42108547e-14 0 189.777854 0 1.42108547e-14 180"></polygon>
            </g>
        </g>
    </g>
</svg>